<?xml version="1.0" encoding="UTF-8" standalone="no"?>
<!-- Created with Inkscape (http://www.inkscape.org/) -->

<svg
   xmlns:ns0="http://www.iki.fi/pav/software/textext/"
   xmlns:dc="http://purl.org/dc/elements/1.1/"
   xmlns:cc="http://creativecommons.org/ns#"
   xmlns:rdf="http://www.w3.org/1999/02/22-rdf-syntax-ns#"
   xmlns:svg="http://www.w3.org/2000/svg"
   xmlns="http://www.w3.org/2000/svg"
   xmlns:sodipodi="http://sodipodi.sourceforge.net/DTD/sodipodi-0.dtd"
   xmlns:inkscape="http://www.inkscape.org/namespaces/inkscape"
   width="103.06001mm"
   height="60.72665mm"
   viewBox="0 0 365.17325 215.17316"
   id="svg19188"
   version="1.1"
   inkscape:version="0.91 r13725"
   sodipodi:docname="analyzer_interface_fw.svg">
  <sodipodi:namedview
     id="base"
     pagecolor="#ffffff"
     bordercolor="#666666"
     borderopacity="1.0"
     inkscape:pageopacity="0.0"
     inkscape:pageshadow="2"
     inkscape:zoom="1.4"
     inkscape:cx="154.13271"
     inkscape:cy="76.728751"
     inkscape:document-units="px"
     inkscape:current-layer="layer1"
     showgrid="true"
     inkscape:object-nodes="true"
     inkscape:window-width="1436"
     inkscape:window-height="855"
     inkscape:window-x="4"
     inkscape:window-y="0"
     inkscape:window-maximized="1"
     fit-margin-top="2"
     fit-margin-left="2"
     fit-margin-right="2"
     fit-margin-bottom="2">
    <inkscape:grid
       type="xygrid"
       id="grid23720"
       originx="-312.41333"
       originy="-652.4134" />
  </sodipodi:namedview>
  <defs
     id="defs19190">
    <marker
       inkscape:stockid="Arrow1Mend"
       orient="auto"
       refY="0.0"
       refX="0.0"
       id="marker9060"
       style="overflow:visible;"
       inkscape:isstock="true">
      <path
         id="path9062"
         d="M 0.0,0.0 L 5.0,-5.0 L -12.5,0.0 L 5.0,5.0 L 0.0,0.0 z "
         style="fill-rule:evenodd;stroke:#000000;stroke-width:1pt;stroke-opacity:1;fill:#000000;fill-opacity:1"
         transform="scale(0.4) rotate(180) translate(10,0)" />
    </marker>
    <marker
       inkscape:stockid="Arrow1Mstart"
       orient="auto"
       refY="0.0"
       refX="0.0"
       id="marker9056"
       style="overflow:visible"
       inkscape:isstock="true">
      <path
         id="path9058"
         d="M 0.0,0.0 L 5.0,-5.0 L -12.5,0.0 L 5.0,5.0 L 0.0,0.0 z "
         style="fill-rule:evenodd;stroke:#000000;stroke-width:1pt;stroke-opacity:1;fill:#000000;fill-opacity:1"
         transform="scale(0.4) translate(10,0)" />
    </marker>
    <marker
       inkscape:stockid="Arrow1Mstart"
       orient="auto"
       refY="0.0"
       refX="0.0"
       id="marker9052"
       style="overflow:visible"
       inkscape:isstock="true">
      <path
         id="path9054"
         d="M 0.0,0.0 L 5.0,-5.0 L -12.5,0.0 L 5.0,5.0 L 0.0,0.0 z "
         style="fill-rule:evenodd;stroke:#000000;stroke-width:1pt;stroke-opacity:1;fill:#000000;fill-opacity:1"
         transform="scale(0.4) translate(10,0)" />
    </marker>
    <marker
       inkscape:stockid="Arrow1Mend"
       orient="auto"
       refY="0.0"
       refX="0.0"
       id="marker9048"
       style="overflow:visible;"
       inkscape:isstock="true">
      <path
         id="path9050"
         d="M 0.0,0.0 L 5.0,-5.0 L -12.5,0.0 L 5.0,5.0 L 0.0,0.0 z "
         style="fill-rule:evenodd;stroke:#000000;stroke-width:1pt;stroke-opacity:1;fill:#000000;fill-opacity:1"
         transform="scale(0.4) rotate(180) translate(10,0)" />
    </marker>
    <marker
       inkscape:isstock="true"
       style="overflow:visible"
       id="marker8609"
       refX="0"
       refY="0"
       orient="auto"
       inkscape:stockid="Arrow1Mstart">
      <path
         inkscape:connector-curvature="0"
         transform="matrix(0.4,0,0,0.4,4,0)"
         style="fill:#000000;fill-opacity:1;fill-rule:evenodd;stroke:#000000;stroke-width:1pt;stroke-opacity:1"
         d="M 0,0 5,-5 -12.5,0 5,5 0,0 Z"
         id="path8611" />
    </marker>
    <marker
       inkscape:isstock="true"
       style="overflow:visible"
       id="Arrow1Mstart"
       refX="0"
       refY="0"
       orient="auto"
       inkscape:stockid="Arrow1Mstart">
      <path
         inkscape:connector-curvature="0"
         transform="matrix(0.4,0,0,0.4,4,0)"
         style="fill:#000000;fill-opacity:1;fill-rule:evenodd;stroke:#000000;stroke-width:1pt;stroke-opacity:1"
         d="M 0,0 5,-5 -12.5,0 5,5 0,0 Z"
         id="path8343" />
    </marker>
    <marker
       inkscape:isstock="true"
       style="overflow:visible"
       id="marker8603"
       refX="0"
       refY="0"
       orient="auto"
       inkscape:stockid="Arrow1Mend">
      <path
         inkscape:connector-curvature="0"
         transform="matrix(-0.4,0,0,-0.4,-4,0)"
         style="fill:#000000;fill-opacity:1;fill-rule:evenodd;stroke:#000000;stroke-width:1pt;stroke-opacity:1"
         d="M 0,0 5,-5 -12.5,0 5,5 0,0 Z"
         id="path8605" />
    </marker>
    <marker
       inkscape:isstock="true"
       style="overflow:visible"
       id="marker8597"
       refX="0"
       refY="0"
       orient="auto"
       inkscape:stockid="Arrow1Mend">
      <path
         inkscape:connector-curvature="0"
         transform="matrix(-0.4,0,0,-0.4,-4,0)"
         style="fill:#000000;fill-opacity:1;fill-rule:evenodd;stroke:#000000;stroke-width:1pt;stroke-opacity:1"
         d="M 0,0 5,-5 -12.5,0 5,5 0,0 Z"
         id="path8599" />
    </marker>
    <marker
       inkscape:isstock="true"
       style="overflow:visible"
       id="Arrow1Mend"
       refX="0"
       refY="0"
       orient="auto"
       inkscape:stockid="Arrow1Mend">
      <path
         inkscape:connector-curvature="0"
         transform="matrix(-0.4,0,0,-0.4,-4,0)"
         style="fill:#000000;fill-opacity:1;fill-rule:evenodd;stroke:#000000;stroke-width:1pt;stroke-opacity:1"
         d="M 0,0 5,-5 -12.5,0 5,5 0,0 Z"
         id="path8346" />
    </marker>
    <marker
       inkscape:stockid="Arrow1Mend"
       orient="auto"
       refY="0"
       refX="0"
       id="marker16705"
       style="overflow:visible"
       inkscape:isstock="true">
      <path
         inkscape:connector-curvature="0"
         id="path16707"
         d="M 0,0 5,-5 -12.5,0 5,5 0,0 Z"
         style="fill:#000000;fill-opacity:1;fill-rule:evenodd;stroke:#000000;stroke-width:1pt;stroke-opacity:1"
         transform="matrix(-0.4,0,0,-0.4,-4,0)" />
    </marker>
    <marker
       inkscape:isstock="true"
       style="overflow:visible"
       id="marker15600"
       refX="0"
       refY="0"
       orient="auto"
       inkscape:stockid="Arrow1Mend">
      <path
         transform="matrix(-0.4,0,0,-0.4,-4,0)"
         style="fill:#000000;fill-opacity:1;fill-rule:evenodd;stroke:#000000;stroke-width:1pt;stroke-opacity:1"
         d="M 0,0 5,-5 -12.5,0 5,5 0,0 Z"
         id="path15602"
         inkscape:connector-curvature="0" />
    </marker>
    <marker
       inkscape:stockid="Arrow1Mend"
       orient="auto"
       refY="0"
       refX="0"
       id="marker16705-5"
       style="overflow:visible"
       inkscape:isstock="true">
      <path
         inkscape:connector-curvature="0"
         id="path16707-2"
         d="M 0,0 5,-5 -12.5,0 5,5 0,0 Z"
         style="fill:#000000;fill-opacity:1;fill-rule:evenodd;stroke:#000000;stroke-width:1pt;stroke-opacity:1"
         transform="matrix(-0.4,0,0,-0.4,-4,0)" />
    </marker>
  </defs>
  <metadata
     id="metadata19193">
    <rdf:RDF>
      <cc:Work
         rdf:about="">
        <dc:format>image/svg+xml</dc:format>
        <dc:type
           rdf:resource="http://purl.org/dc/dcmitype/StillImage" />
        <dc:title></dc:title>
      </cc:Work>
    </rdf:RDF>
  </metadata>
  <g
     inkscape:label="Layer 1"
     inkscape:groupmode="layer"
     id="layer1"
     transform="translate(-312.41338,-184.77558)">
    <rect
       transform="matrix(0,-1,1,0,0,0)"
       style="opacity:1;fill:#bfffff;fill-opacity:0.5;stroke:none;stroke-width:0.28222224;stroke-linecap:square;stroke-linejoin:miter;stroke-miterlimit:4;stroke-dasharray:none;stroke-dashoffset:0;stroke-opacity:1"
       id="rect8328-80-4-3-5-0"
       width="39.999954"
       height="79.999947"
       x="-312.36215"
       y="320"
       ry="0" />
    <rect
       transform="matrix(0,-1,1,0,0,0)"
       style="opacity:1;fill:none;fill-opacity:0.5;stroke:#bfbfbf;stroke-width:1;stroke-linecap:square;stroke-linejoin:miter;stroke-miterlimit:4;stroke-dasharray:none;stroke-dashoffset:0;stroke-opacity:1"
       id="rect8328-6-7-7-4"
       width="39.999954"
       height="80"
       x="-312.36215"
       y="320"
       ry="0.99999714" />
    <path
       inkscape:connector-curvature="0"
       id="path15326"
       d="m 440.00002,292.36213 -40.00001,0"
       style="fill:none;fill-rule:evenodd;stroke:#000000;stroke-width:1px;stroke-linecap:butt;stroke-linejoin:miter;stroke-opacity:1;marker-end:url(#marker15600)" />
    <rect
       transform="matrix(0,-1,1,0,0,0)"
       style="opacity:1;fill:#bfffff;fill-opacity:0.5;stroke:none;stroke-width:0.28222224;stroke-linecap:square;stroke-linejoin:miter;stroke-miterlimit:4;stroke-dasharray:none;stroke-dashoffset:0;stroke-opacity:1"
       id="rect8328-80-4-3-5-0-2"
       width="39.999954"
       height="79.999947"
       x="-232.36214"
       y="590.00006"
       ry="0" />
    <rect
       transform="matrix(0,-1,1,0,0,0)"
       style="opacity:1;fill:none;fill-opacity:0.5;stroke:#bfbfbf;stroke-width:1;stroke-linecap:square;stroke-linejoin:miter;stroke-miterlimit:4;stroke-dasharray:none;stroke-dashoffset:0;stroke-opacity:1"
       id="rect8328-6-7-7-4-1"
       width="39.999954"
       height="80"
       x="-232.36214"
       y="590.00006"
       ry="0.99999714" />
    <rect
       transform="matrix(0,-1,1,0,0,0)"
       style="opacity:1;fill:#bfffff;fill-opacity:0.5;stroke:none;stroke-width:0.28222224;stroke-linecap:square;stroke-linejoin:miter;stroke-miterlimit:4;stroke-dasharray:none;stroke-dashoffset:0;stroke-opacity:1"
       id="rect8328-80-4-3-5-0-7"
       width="39.999954"
       height="79.999947"
       x="-312.36215"
       y="590.00006"
       ry="0" />
    <rect
       transform="matrix(0,-1,1,0,0,0)"
       style="opacity:1;fill:none;fill-opacity:0.5;stroke:#bfbfbf;stroke-width:1;stroke-linecap:square;stroke-linejoin:miter;stroke-miterlimit:4;stroke-dasharray:none;stroke-dashoffset:0;stroke-opacity:1"
       id="rect8328-6-7-7-4-9"
       width="39.999954"
       height="80"
       x="-312.36215"
       y="590.00006"
       ry="0.99999714" />
    <rect
       transform="matrix(0,-1,1,0,0,0)"
       style="opacity:1;fill:#bfffff;fill-opacity:0.5;stroke:none;stroke-width:0.28222224;stroke-linecap:square;stroke-linejoin:miter;stroke-miterlimit:4;stroke-dasharray:none;stroke-dashoffset:0;stroke-opacity:1"
       id="rect8328-80-4-3-5-0-29"
       width="39.999954"
       height="79.999947"
       x="-392.36215"
       y="590.00006"
       ry="0" />
    <rect
       transform="matrix(0,-1,1,0,0,0)"
       style="opacity:1;fill:none;fill-opacity:0.5;stroke:#bfbfbf;stroke-width:1;stroke-linecap:square;stroke-linejoin:miter;stroke-miterlimit:4;stroke-dasharray:none;stroke-dashoffset:0;stroke-opacity:1"
       id="rect8328-6-7-7-4-4"
       width="39.999954"
       height="80"
       x="-392.36215"
       y="590.00006"
       ry="0.99999714" />
    <g
       id="content"
       transform="matrix(1.4948327,0,0,-1.494833,274.25975,1279.8937)"
       xml:space="preserve"
       stroke-miterlimit="10.433"
       font-style="normal"
       font-variant="normal"
       font-weight="normal"
       font-stretch="normal"
       font-size-adjust="none"
       letter-spacing="normal"
       word-spacing="normal"
       ns0:text="UMTS"
       ns0:preamble="/Users/martinjlowm/texmf/inkscape_preamble.tex"
       style="font-style:normal;font-variant:normal;font-weight:normal;font-stretch:normal;letter-spacing:normal;word-spacing:normal;text-anchor:start;fill:#4040ff;fill-opacity:1;fill-rule:evenodd;stroke:#000000;stroke-linecap:butt;stroke-linejoin:miter;stroke-miterlimit:10.43299961;stroke-dasharray:none;stroke-dashoffset:0;stroke-opacity:1"><path
         style="fill:#000000;stroke-width:0"
         inkscape:connector-curvature="0"
         d="m 229.22,659.53 0,-0.13 -0.01,-0.13 -0.01,-0.12 -0.02,-0.12 -0.02,-0.12 -0.03,-0.11 -0.04,-0.11 -0.03,-0.1 -0.05,-0.1 -0.04,-0.1 -0.05,-0.09 -0.05,-0.09 -0.06,-0.08 -0.06,-0.08 -0.06,-0.08 -0.07,-0.07 -0.07,-0.07 -0.07,-0.06 -0.07,-0.06 -0.08,-0.06 -0.08,-0.05 -0.08,-0.05 -0.08,-0.04 -0.08,-0.04 -0.09,-0.03 -0.08,-0.03 -0.09,-0.03 -0.08,-0.02 -0.09,-0.02 -0.09,-0.01 -0.09,0 -0.09,-0.01 c -0.46,0 -1.64,0.25 -1.64,2.14 l 0,3.78 c 0,0.36 0.02,0.47 0.79,0.47 l 0.24,0 0,0.31 c -0.35,-0.03 -1.09,-0.03 -1.47,-0.03 -0.38,0 -1.12,0 -1.47,0.03 l 0,-0.31 0.24,0 c 0.76,0 0.79,-0.11 0.79,-0.47 l 0,-3.74 c 0,-1.4 1.15,-2.48 2.5,-2.48 1.15,0 2.04,0.92 2.21,2.05 0.03,0.2 0.03,0.29 0.03,0.69 l 0,3.18 c 0,0.33 0,0.77 1.03,0.77 l 0,0.31 c -0.36,-0.01 -0.84,-0.03 -1.18,-0.03 -0.35,0 -0.82,0.02 -1.18,0.03 l 0,-0.31 c 1.02,0 1.02,-0.47 1.02,-0.73 z"
         id="path8275" /><path
         style="fill:#000000;stroke-width:0"
         inkscape:connector-curvature="0"
         d="m 233.3,663.8 0,0.01 -0.01,0.01 0,0.01 0,0.01 -0.01,0.02 -0.01,0.01 -0.01,0.02 0,0.01 -0.01,0.02 -0.01,0.01 -0.01,0.01 0,0.01 -0.01,0.01 -0.01,0.01 -0.01,0 0,0.01 -0.01,0.01 -0.01,0 -0.01,0.01 -0.01,0 -0.01,0.01 -0.01,0 -0.01,0 -0.01,0 -0.02,0.01 -0.01,0 -0.01,0 -0.02,0 -0.01,0 -0.02,0 -0.02,0 -0.02,0 -0.02,0 -0.02,0 -1.68,0 0,-0.31 0.24,0 c 0.77,0 0.79,-0.11 0.79,-0.47 l 0,-4.96 c 0,-0.27 0,-0.74 -1.03,-0.74 l 0,-0.31 c 0.35,0.01 0.84,0.04 1.17,0.04 0.32,0 0.81,-0.03 1.16,-0.04 l 0,0.31 c -1.03,0 -1.03,0.47 -1.03,0.74 l 0,5.35 0.02,0 2.39,-6.18 c 0.05,-0.13 0.1,-0.22 0.2,-0.22 0.11,0 0.14,0.08 0.18,0.19 l 2.45,6.29 0.01,0 0,-5.7 c 0,-0.36 -0.02,-0.47 -0.79,-0.47 l -0.24,0 0,-0.31 c 0.37,0.04 1.05,0.04 1.44,0.04 0.39,0 1.05,0 1.42,-0.04 l 0,0.31 -0.24,0 c -0.77,0 -0.79,0.11 -0.79,0.47 l 0,5.23 c 0,0.36 0.02,0.47 0.79,0.47 l 0.24,0 0,0.31 -1.68,0 c -0.26,0 -0.26,-0.01 -0.33,-0.19 l -2.18,-5.59 z"
         id="path8277" /><path
         style="fill:#000000;stroke-width:0"
         inkscape:connector-curvature="0"
         d="m 246.66,663.96 -6.08,0 -0.18,-2.24 0.24,0 c 0.14,1.6 0.29,1.93 1.79,1.93 0.18,0 0.44,0 0.54,-0.02 0.21,-0.04 0.21,-0.15 0.21,-0.37 l 0,-5.24 c 0,-0.34 0,-0.48 -1.04,-0.48 l -0.4,0 0,-0.31 c 0.41,0.04 1.42,0.04 1.88,0.04 0.46,0 1.48,0 1.89,-0.04 l 0,0.31 -0.4,0 c -1.04,0 -1.04,0.14 -1.04,0.48 l 0,5.24 c 0,0.19 0,0.33 0.17,0.37 0.11,0.02 0.38,0.02 0.57,0.02 1.51,0 1.65,-0.33 1.79,-1.93 l 0.25,0 z"
         id="path8279" /><path
         style="fill:#000000;stroke-width:0"
         inkscape:connector-curvature="0"
         d="m 250.7,661.09 -1.27,0.31 c -0.62,0.15 -1,0.68 -1,1.26 0,0.69 0.53,1.3 1.31,1.3 1.66,0 1.88,-1.63 1.94,-2.08 0.01,-0.06 0.01,-0.11 0.12,-0.11 0.13,0 0.13,0.05 0.13,0.23 l 0,2 c 0,0.17 0,0.24 -0.11,0.24 -0.07,0 -0.08,-0.01 -0.15,-0.13 l -0.35,-0.57 c -0.3,0.29 -0.71,0.7 -1.59,0.7 -1.11,0 -1.94,-0.88 -1.94,-1.93 0,-0.82 0.53,-1.55 1.3,-1.82 0.11,-0.04 0.62,-0.16 1.31,-0.33 0.27,-0.06 0.57,-0.13 0.85,-0.5 0.21,-0.26 0.31,-0.59 0.31,-0.92 0,-0.7 -0.5,-1.42 -1.33,-1.42 -0.29,0 -1.05,0.05 -1.58,0.54 -0.57,0.54 -0.6,1.17 -0.61,1.53 -0.01,0.1 -0.09,0.1 -0.12,0.1 -0.13,0 -0.13,-0.07 -0.13,-0.25 l 0,-1.98 c 0,-0.17 0,-0.24 0.11,-0.24 0.07,0 0.08,0.02 0.15,0.13 0,0.01 0.03,0.03 0.36,0.56 0.3,-0.34 0.94,-0.69 1.83,-0.69 1.16,0 1.96,0.97 1.96,2.06 0,1 -0.66,1.81 -1.5,2.01 z"
         id="path8281" /></g>    <path
       inkscape:connector-curvature="0"
       id="path8331"
       d="m 590.00001,292.36218 -40,0"
       style="fill:none;fill-rule:evenodd;stroke:#000000;stroke-width:1.00000012;stroke-linecap:butt;stroke-linejoin:miter;stroke-miterlimit:4;stroke-dasharray:none;stroke-opacity:1;marker-start:url(#marker9052)" />
    <path
       sodipodi:nodetypes="cc"
       inkscape:connector-curvature="0"
       id="path8595"
       d="m 550.00006,312.3622 40,40"
       style="fill:none;fill-rule:evenodd;stroke:#000000;stroke-width:1px;stroke-linecap:butt;stroke-linejoin:miter;stroke-opacity:1;marker-end:url(#marker9060)" />
    <path
       sodipodi:nodetypes="cc"
       inkscape:connector-curvature="0"
       id="path8601"
       d="m 550.00006,272.36219 39.99993,-40.00001"
       style="fill:none;fill-rule:evenodd;stroke:#000000;stroke-width:1px;stroke-linecap:butt;stroke-linejoin:miter;stroke-opacity:1;marker-end:url(#marker9048)" />
    <g
       style="font-style:normal;font-variant:normal;font-weight:normal;font-stretch:normal;letter-spacing:normal;word-spacing:normal;text-anchor:start;fill:#4040ff;fill-opacity:1;fill-rule:evenodd;stroke:#000000;stroke-linecap:butt;stroke-linejoin:miter;stroke-miterlimit:10.43299961;stroke-dasharray:none;stroke-dashoffset:0;stroke-opacity:1"
       ns0:preamble="/Users/martinjlowm/texmf/inkscape_preamble.tex"
       ns0:text="LTE"
       word-spacing="normal"
       letter-spacing="normal"
       font-size-adjust="none"
       font-stretch="normal"
       font-weight="normal"
       font-variant="normal"
       font-style="normal"
       stroke-miterlimit="10.433"
       xml:space="preserve"
       transform="matrix(1.4948327,0,0,-1.494833,281.50221,1199.8862)"
       id="g8672"><path
         id="path8674"
         d="m 229.22,659.8 -0.25,0 c -0.11,-1.02 -0.24,-2.26 -2,-2.26 l -0.81,0 c -0.47,0 -0.49,0.07 -0.49,0.4 l 0,5.29 c 0,0.34 0,0.48 0.95,0.48 l 0.32,0 0,0.31 c -0.35,-0.03 -1.26,-0.03 -1.67,-0.03 -0.39,0 -1.16,0 -1.51,0.03 l 0,-0.31 0.24,0 c 0.76,0 0.79,-0.11 0.79,-0.47 l 0,-5.23 c 0,-0.36 -0.03,-0.47 -0.79,-0.47 l -0.24,0 0,-0.31 5.18,0 z"
         inkscape:connector-curvature="0"
         style="fill:#000000;stroke-width:0" /><path
         id="path8676"
         d="m 235.46,663.96 -6.08,0 -0.19,-2.24 0.25,0 c 0.14,1.6 0.29,1.93 1.79,1.93 0.18,0 0.44,0 0.54,-0.02 0.21,-0.04 0.21,-0.15 0.21,-0.37 l 0,-5.24 c 0,-0.34 0,-0.48 -1.05,-0.48 l -0.4,0 0,-0.31 c 0.41,0.04 1.43,0.04 1.88,0.04 0.46,0 1.49,0 1.89,-0.04 l 0,0.31 -0.39,0 c -1.05,0 -1.05,0.14 -1.05,0.48 l 0,5.24 c 0,0.19 0,0.33 0.18,0.37 0.11,0.02 0.38,0.02 0.57,0.02 1.5,0 1.65,-0.33 1.79,-1.93 l 0.25,0 z"
         inkscape:connector-curvature="0"
         style="fill:#000000;stroke-width:0" /><path
         id="path8678"
         d="m 237.38,658.01 0,-0.03 0,-0.03 0,-0.03 0,-0.03 0,-0.03 -0.01,-0.03 0,-0.02 -0.01,-0.02 0,-0.03 -0.01,-0.02 -0.01,-0.02 -0.01,-0.02 -0.01,-0.01 -0.01,-0.02 -0.02,-0.01 -0.02,-0.02 -0.02,-0.01 -0.02,-0.01 -0.01,-0.01 -0.01,0 -0.02,-0.01 -0.01,0 -0.02,-0.01 -0.01,0 -0.02,-0.01 -0.01,0 -0.02,0 -0.02,-0.01 -0.02,0 -0.02,0 -0.02,-0.01 -0.02,0 -0.03,0 -0.02,0 -0.02,-0.01 -0.03,0 -0.03,0 -0.02,0 -0.03,0 -0.03,0 -0.03,0 -0.03,-0.01 -0.03,0 -0.04,0 -0.03,0 -0.04,0 -0.24,0 0,-0.31 5.75,0 0.41,2.57 -0.25,0 c -0.24,-1.53 -0.47,-2.26 -2.18,-2.26 l -1.33,0 c -0.46,0 -0.49,0.07 -0.49,0.4 l 0,2.65 0.9,0 c 0.97,0 1.08,-0.31 1.08,-1.16 l 0.24,0 0,2.63 -0.24,0 c 0,-0.85 -0.11,-1.16 -1.08,-1.16 l -0.9,0 0,2.38 c 0,0.33 0.03,0.4 0.49,0.4 l 1.29,0 c 1.52,0 1.79,-0.54 1.95,-1.92 l 0.25,0 -0.28,2.23 -5.61,0 0,-0.31 0.24,0 c 0.77,0 0.79,-0.11 0.79,-0.46 z"
         inkscape:connector-curvature="0"
         style="fill:#000000;stroke-width:0" /></g>    <g
       id="g8800"
       transform="matrix(1.4948327,0,0,-1.494833,276.25538,1359.9759)"
       xml:space="preserve"
       stroke-miterlimit="10.433"
       font-style="normal"
       font-variant="normal"
       font-weight="normal"
       font-stretch="normal"
       font-size-adjust="none"
       letter-spacing="normal"
       word-spacing="normal"
       ns0:text="HSPA"
       ns0:preamble="/Users/martinjlowm/texmf/inkscape_preamble.tex"
       style="font-style:normal;font-variant:normal;font-weight:normal;font-stretch:normal;letter-spacing:normal;word-spacing:normal;text-anchor:start;fill:#4040ff;fill-opacity:1;fill-rule:evenodd;stroke:#000000;stroke-linecap:butt;stroke-linejoin:miter;stroke-miterlimit:10.43299961;stroke-dasharray:none;stroke-dashoffset:0;stroke-opacity:1"><path
         style="fill:#000000;stroke-width:0"
         inkscape:connector-curvature="0"
         d="m 229.53,663.24 0,0.04 0,0.03 0,0.03 0,0.03 0.01,0.03 0,0.02 0,0.03 0.01,0.02 0,0.02 0.01,0.02 0.01,0.02 0.01,0.02 0.01,0.02 0.01,0.01 0.02,0.02 0.02,0.01 0.02,0.02 0.02,0.01 0.01,0 0.01,0.01 0.02,0 0.01,0.01 0.02,0 0.01,0.01 0.02,0 0.02,0.01 0.01,0 0.02,0 0.02,0.01 0.02,0 0.02,0 0.02,0 0.03,0.01 0.02,0 0.02,0 0.03,0 0.03,0.01 0.02,0 0.03,0 0.03,0 0.03,0 0.03,0 0.03,0 0.04,0 0.03,0 0.04,0 0.24,0 0,0.31 c -0.35,-0.03 -1.09,-0.03 -1.47,-0.03 -0.38,0 -1.12,0 -1.47,0.03 l 0,-0.31 0.24,0 c 0.77,0 0.79,-0.11 0.79,-0.47 l 0,-2.32 -2.98,0 0,2.32 c 0,0.36 0.02,0.47 0.79,0.47 l 0.24,0 0,0.31 c -0.35,-0.03 -1.09,-0.03 -1.47,-0.03 -0.38,0 -1.12,0 -1.47,0.03 l 0,-0.31 0.24,0 c 0.76,0 0.79,-0.11 0.79,-0.47 l 0,-5.23 c 0,-0.36 -0.03,-0.47 -0.79,-0.47 l -0.24,0 0,-0.31 c 0.35,0.04 1.09,0.04 1.46,0.04 0.38,0 1.13,0 1.48,-0.04 l 0,0.31 -0.24,0 c -0.77,0 -0.79,0.11 -0.79,0.47 l 0,2.6 2.98,0 0,-2.6 c 0,-0.36 -0.02,-0.47 -0.79,-0.47 l -0.24,0 0,-0.31 c 0.35,0.04 1.09,0.04 1.46,0.04 0.38,0 1.13,0 1.48,-0.04 l 0,0.31 -0.24,0 c -0.77,0 -0.79,0.11 -0.79,0.47 z"
         id="path8802" /><path
         style="fill:#000000;stroke-width:0"
         inkscape:connector-curvature="0"
         d="m 234.38,661.09 -1.28,0.31 c -0.61,0.15 -1,0.68 -1,1.26 0,0.69 0.53,1.3 1.31,1.3 1.66,0 1.88,-1.63 1.94,-2.08 0.01,-0.06 0.01,-0.11 0.12,-0.11 0.13,0 0.13,0.05 0.13,0.23 l 0,2 c 0,0.17 0,0.24 -0.11,0.24 -0.07,0 -0.08,-0.01 -0.15,-0.13 l -0.35,-0.57 c -0.29,0.29 -0.7,0.7 -1.59,0.7 -1.1,0 -1.94,-0.88 -1.94,-1.93 0,-0.82 0.53,-1.55 1.3,-1.82 0.11,-0.04 0.62,-0.16 1.32,-0.33 0.27,-0.06 0.57,-0.13 0.84,-0.5 0.21,-0.26 0.31,-0.59 0.31,-0.92 0,-0.7 -0.5,-1.42 -1.33,-1.42 -0.29,0 -1.05,0.05 -1.57,0.54 -0.58,0.54 -0.61,1.17 -0.62,1.53 -0.01,0.1 -0.09,0.1 -0.12,0.1 -0.13,0 -0.13,-0.07 -0.13,-0.25 l 0,-1.98 c 0,-0.17 0,-0.24 0.11,-0.24 0.07,0 0.08,0.02 0.15,0.13 0,0.01 0.03,0.03 0.36,0.56 0.31,-0.34 0.94,-0.69 1.83,-0.69 1.16,0 1.96,0.97 1.96,2.06 0,1 -0.66,1.81 -1.49,2.01 z"
         id="path8804" /><path
         style="fill:#000000;stroke-width:0"
         inkscape:connector-curvature="0"
         d="m 238.7,660.37 -0.03,0.26 0,2.69 c 0,0.32 0.02,0.39 0.48,0.39 l 0.89,0 c 1.58,0 1.58,-1.05 1.58,-1.54 0,-0.46 0,-1.54 -1.58,-1.54 l -1.37,0 0.03,-0.26 1.68,0 c 1.19,0 2.27,0.81 2.27,1.8 0,0.98 -0.99,1.85 -2.35,1.85 l -3.51,0 0,-0.31 0.24,0 c 0.76,0 0.78,-0.11 0.78,-0.47 l 0,-5.23 c 0,-0.36 -0.02,-0.47 -0.78,-0.47 l -0.24,0 0,-0.31 c 0.35,0.04 1.08,0.04 1.46,0.04 0.38,0 1.12,0 1.47,-0.04 l 0,0.31 -0.24,0 c -0.76,0 -0.78,0.11 -0.78,0.47 z"
         id="path8806" /><path
         style="fill:#000000;stroke-width:0"
         inkscape:connector-curvature="0"
         d="m 246.35,664.15 0,0.01 -0.01,0.01 0,0.01 0,0.01 -0.01,0.02 0,0.01 -0.01,0.01 0,0 -0.01,0.01 0,0.01 0,0.01 -0.01,0.01 0,0.01 -0.01,0 0,0.01 -0.01,0.01 -0.01,0 0,0.01 -0.01,0 -0.01,0.01 0,0 -0.01,0.01 -0.01,0 -0.01,0.01 -0.01,0 -0.01,0 -0.01,0 -0.01,0 -0.01,0.01 -0.02,0 -0.01,0 -0.01,0 -0.01,0 c -0.16,0 -0.19,-0.06 -0.24,-0.2 l -2.05,-5.94 c -0.18,-0.51 -0.58,-0.66 -1.12,-0.67 l 0,-0.31 c 0.23,0.01 0.66,0.04 1.02,0.04 0.3,0 0.82,-0.03 1.14,-0.04 l 0,0.31 c -0.5,0 -0.75,0.25 -0.75,0.51 0,0.03 0.01,0.13 0.02,0.15 l 0.46,1.3 0.11,0.31 1.11,3.23 1.13,-3.23 -2.24,0 -0.11,-0.31 2.46,0 0.53,-1.52 c 0.01,-0.04 0.03,-0.1 0.03,-0.14 0,-0.3 -0.56,-0.3 -0.83,-0.3 l 0,-0.31 c 0.36,0.04 1.06,0.04 1.43,0.04 0.43,0 0.89,-0.01 1.31,-0.04 l 0,0.31 -0.18,0 c -0.6,0 -0.74,0.07 -0.85,0.4 z"
         id="path8808" /></g>    <g
       style="font-style:normal;font-variant:normal;font-weight:normal;font-stretch:normal;letter-spacing:normal;word-spacing:normal;text-anchor:start;fill:#4040ff;fill-opacity:1;fill-rule:evenodd;stroke:#000000;stroke-linecap:butt;stroke-linejoin:miter;stroke-miterlimit:10.43299961;stroke-dasharray:none;stroke-dashoffset:0;stroke-opacity:1"
       ns0:preamble="/Users/martinjlowm/texmf/inkscape_preamble.tex"
       ns0:text="EDGE"
       word-spacing="normal"
       letter-spacing="normal"
       font-size-adjust="none"
       font-stretch="normal"
       font-weight="normal"
       font-variant="normal"
       font-style="normal"
       stroke-miterlimit="10.433"
       xml:space="preserve"
       transform="matrix(1.4948327,0,0,-1.494833,4.3120058,1279.8937)"
       id="g8956"><path
         id="path8958"
         d="m 224.79,658.01 -0.01,-0.03 0,-0.03 0,-0.03 0,-0.03 0,-0.03 0,-0.03 -0.01,-0.02 0,-0.02 -0.01,-0.03 0,-0.02 -0.01,-0.02 -0.01,-0.02 -0.01,-0.01 -0.02,-0.02 -0.01,-0.01 -0.02,-0.02 -0.02,-0.01 -0.02,-0.01 -0.02,-0.01 -0.01,0 -0.01,-0.01 -0.02,0 -0.01,-0.01 -0.02,0 -0.01,-0.01 -0.02,0 -0.02,0 -0.02,-0.01 -0.01,0 -0.03,0 -0.02,-0.01 -0.02,0 -0.02,0 -0.02,0 -0.03,-0.01 -0.02,0 -0.03,0 -0.03,0 -0.03,0 -0.02,0 -0.03,0 -0.04,-0.01 -0.03,0 -0.03,0 -0.04,0 -0.03,0 -0.24,0 0,-0.31 5.74,0 0.42,2.57 -0.25,0 c -0.25,-1.53 -0.48,-2.26 -2.19,-2.26 l -1.32,0 c -0.47,0 -0.49,0.07 -0.49,0.4 l 0,2.65 0.9,0 c 0.96,0 1.07,-0.31 1.07,-1.16 l 0.25,0 0,2.63 -0.25,0 c 0,-0.85 -0.11,-1.16 -1.07,-1.16 l -0.9,0 0,2.38 c 0,0.33 0.02,0.4 0.49,0.4 l 1.28,0 c 1.52,0 1.79,-0.54 1.95,-1.92 l 0.25,0 -0.28,2.23 -5.6,0 0,-0.31 0.24,0 c 0.76,0 0.79,-0.11 0.79,-0.46 z"
         inkscape:connector-curvature="0"
         style="fill:#000000;stroke-width:0" /><path
         id="path8960"
         d="m 230.56,664.02 0,-0.31 0.24,0 c 0.77,0 0.79,-0.11 0.79,-0.47 l 0,-5.23 c 0,-0.36 -0.02,-0.47 -0.79,-0.47 l -0.24,0 0,-0.31 3.64,0 -0.27,0.31 -1,0 c -0.47,0 -0.49,0.07 -0.49,0.4 l 0,5.38 c 0,0.32 0.02,0.39 0.49,0.39 l 0.99,0 c 0.62,0 1.31,-0.22 1.81,-0.92 0.43,-0.59 0.52,-1.44 0.52,-2.22 0,-1.1 -0.19,-1.7 -0.54,-2.18 -0.2,-0.27 -0.77,-0.85 -1.78,-0.85 l 0.27,-0.31 c 1.67,0 3.05,1.48 3.05,3.34 0,1.89 -1.35,3.45 -3.05,3.45 z"
         inkscape:connector-curvature="0"
         style="fill:#000000;stroke-width:0" /><path
         id="path8962"
         d="m 243.72,657.86 0.02,-0.02 0.01,-0.02 0.02,-0.02 0.01,-0.03 0.02,-0.02 0.02,-0.03 0.02,-0.02 0.02,-0.03 0.02,-0.02 0.03,-0.03 0.04,-0.05 0.05,-0.05 0.05,-0.05 0.02,-0.02 0.03,-0.03 0.02,-0.02 0.02,-0.02 0.03,-0.02 0.02,-0.02 0.02,-0.01 0.02,-0.02 0.02,-0.01 0.02,-0.02 0.02,-0.01 0.02,-0.01 0.01,-0.01 0.02,0 0,0 0.01,0 0,0 0.01,-0.01 c 0.09,0 0.09,0.08 0.09,0.23 l 0,1.73 c 0,0.39 0.04,0.44 0.69,0.44 l 0,0.31 c -0.37,-0.01 -0.92,-0.03 -1.22,-0.03 -0.4,0 -1.24,0 -1.6,0.03 l 0,-0.31 0.32,0 c 0.89,0 0.92,-0.11 0.92,-0.48 l 0,-0.63 c 0,-1.12 -1.26,-1.21 -1.54,-1.21 -0.64,0 -2.62,0.35 -2.62,3.31 0,2.97 1.97,3.3 2.56,3.3 1.07,0 1.97,-0.89 2.17,-2.35 0.02,-0.14 0.02,-0.17 0.16,-0.17 0.16,0 0.16,0.03 0.16,0.24 l 0,2.35 c 0,0.17 0,0.24 -0.11,0.24 -0.04,0 -0.08,0 -0.16,-0.12 l -0.5,-0.74 c -0.31,0.32 -0.85,0.86 -1.84,0.86 -1.85,0 -3.46,-1.57 -3.46,-3.61 0,-2.03 1.59,-3.61 3.48,-3.61 0.73,0 1.52,0.26 1.86,0.84 z"
         inkscape:connector-curvature="0"
         style="fill:#000000;stroke-width:0" /><path
         id="path8964"
         d="m 246.99,658.01 0,-0.03 0,-0.03 0,-0.03 0,-0.03 0,-0.03 0,-0.03 -0.01,-0.02 0,-0.02 -0.01,-0.03 0,-0.02 -0.01,-0.02 -0.01,-0.02 -0.01,-0.01 -0.02,-0.02 -0.01,-0.01 -0.02,-0.02 -0.02,-0.01 -0.02,-0.01 -0.02,-0.01 -0.01,0 -0.01,-0.01 -0.02,0 -0.01,-0.01 -0.02,0 -0.01,-0.01 -0.02,0 -0.02,0 -0.02,-0.01 -0.02,0 -0.02,0 -0.02,-0.01 -0.02,0 -0.02,0 -0.03,0 -0.02,-0.01 -0.02,0 -0.03,0 -0.03,0 -0.03,0 -0.03,0 -0.03,0 -0.03,-0.01 -0.03,0 -0.03,0 -0.04,0 -0.03,0 -0.24,0 0,-0.31 5.74,0 0.42,2.57 -0.25,0 c -0.25,-1.53 -0.48,-2.26 -2.19,-2.26 l -1.32,0 c -0.47,0 -0.49,0.07 -0.49,0.4 l 0,2.65 0.89,0 c 0.97,0 1.08,-0.31 1.08,-1.16 l 0.25,0 0,2.63 -0.25,0 c 0,-0.85 -0.11,-1.16 -1.08,-1.16 l -0.89,0 0,2.38 c 0,0.33 0.02,0.4 0.49,0.4 l 1.28,0 c 1.52,0 1.79,-0.54 1.95,-1.92 l 0.25,0 -0.28,2.23 -5.6,0 0,-0.31 0.24,0 c 0.76,0 0.78,-0.11 0.78,-0.46 z"
         inkscape:connector-curvature="0"
         style="fill:#000000;stroke-width:0" /></g>    <g
       transform="matrix(3.5433071,0,0,3.5433068,49.305516,522.30253)"
       id="g15313">
      <rect
         transform="matrix(0,-1,1,0,0,0)"
         style="opacity:1;fill:#bfffff;fill-opacity:0.5;stroke:none;stroke-width:0.28222224;stroke-linecap:square;stroke-linejoin:miter;stroke-miterlimit:4;stroke-dasharray:none;stroke-dashoffset:0;stroke-opacity:1"
         id="rect8328-80-4-3-5-2"
         width="11.288887"
         height="31.044439"
         x="59.24984"
         y="110.26268"
         ry="0" />
      <rect
         transform="matrix(0,-1,1,0,0,0)"
         style="opacity:1;fill:none;fill-opacity:0.5;stroke:#bfbfbf;stroke-width:0.28222224;stroke-linecap:square;stroke-linejoin:miter;stroke-miterlimit:4;stroke-dasharray:none;stroke-dashoffset:0;stroke-opacity:1"
         id="rect8328-6-7-7-1"
         width="11.288895"
         height="31.044445"
         x="59.249832"
         y="110.26268"
         ry="0.28222141" />
      <g
         style="font-style:normal;font-variant:normal;font-weight:normal;font-stretch:normal;letter-spacing:normal;word-spacing:normal;text-anchor:start;fill:#4040ff;fill-opacity:1;fill-rule:evenodd;stroke:#000000;stroke-linecap:butt;stroke-linejoin:miter;stroke-miterlimit:10.43299961;stroke-dasharray:none;stroke-dashoffset:0;stroke-opacity:1"
         ns0:preamble="/Users/martinjlowm/texmf/inkscape_preamble.tex"
         ns0:text="Analyzer"
         word-spacing="normal"
         letter-spacing="normal"
         font-size-adjust="none"
         font-stretch="normal"
         font-weight="normal"
         font-variant="normal"
         font-style="normal"
         stroke-miterlimit="10.433"
         xml:space="preserve"
         transform="matrix(0.42187501,0,0,-0.42187512,23.338882,213.44837)"
         id="g10312"><path
           id="path10314"
           d="m 227.39,664.15 0,0.01 -0.01,0.01 0,0.01 -0.01,0.01 0,0.02 0,0.01 -0.01,0.01 0,0 -0.01,0.01 0,0.01 -0.01,0.01 0,0.01 -0.01,0.01 0,0 -0.01,0.01 0,0.01 -0.01,0 0,0.01 -0.01,0 -0.01,0.01 -0.01,0 0,0.01 -0.01,0 -0.01,0.01 -0.01,0 -0.01,0 -0.01,0 -0.01,0 -0.02,0.01 -0.01,0 -0.01,0 -0.01,0 -0.01,0 c -0.16,0 -0.19,-0.06 -0.24,-0.2 l -2.05,-5.94 c -0.18,-0.51 -0.58,-0.66 -1.12,-0.67 l 0,-0.31 c 0.23,0.01 0.66,0.04 1.01,0.04 0.31,0 0.83,-0.03 1.15,-0.04 l 0,0.31 c -0.5,0 -0.75,0.25 -0.75,0.51 0,0.03 0.01,0.13 0.02,0.15 l 0.46,1.3 0.11,0.31 1.11,3.23 1.13,-3.23 -2.24,0 -0.11,-0.31 2.46,0 0.53,-1.52 c 0,-0.04 0.02,-0.1 0.02,-0.14 0,-0.3 -0.55,-0.3 -0.82,-0.3 l 0,-0.31 c 0.36,0.04 1.05,0.04 1.43,0.04 0.43,0 0.89,-0.01 1.31,-0.04 l 0,0.31 -0.18,0 c -0.6,0 -0.74,0.07 -0.85,0.4 z"
           inkscape:connector-curvature="0"
           style="fill:#000000;stroke-width:0" /><path
           id="path10316"
           d="m 232,660.65 0,-2.66 c 0,-0.45 -0.11,-0.45 -0.78,-0.45 l 0,-0.31 c 0.35,0.01 0.86,0.04 1.13,0.04 0.25,0 0.77,-0.03 1.11,-0.04 l 0,0.31 c -0.67,0 -0.78,0 -0.78,0.45 l 0,1.83 c 0,1.03 0.71,1.59 1.35,1.59 0.62,0 0.73,-0.54 0.73,-1.11 l 0,-2.31 c 0,-0.45 -0.11,-0.45 -0.77,-0.45 l 0,-0.31 c 0.35,0.01 0.85,0.04 1.12,0.04 0.26,0 0.78,-0.03 1.12,-0.04 l 0,0.31 c -0.52,0 -0.77,0 -0.78,0.3 l 0,1.9 c 0,0.85 0,1.16 -0.31,1.52 -0.14,0.17 -0.46,0.37 -1.04,0.37 -0.73,0 -1.2,-0.43 -1.48,-1.05 l 0,1.05 -1.4,-0.11 0,-0.31 c 0.7,0 0.78,-0.07 0.78,-0.56 z"
           inkscape:connector-curvature="0"
           style="fill:#000000;stroke-width:0" /><path
           id="path10318"
           d="m 239.75,657.99 0.01,-0.04 0,-0.03 0.01,-0.04 0.01,-0.04 0.01,-0.04 0.01,-0.03 0.01,-0.04 0.01,-0.03 0.02,-0.04 0.02,-0.03 0.01,-0.04 0.02,-0.03 0.02,-0.03 0.02,-0.04 0.03,-0.03 0.02,-0.03 0.02,-0.02 0.03,-0.03 0.03,-0.03 0.03,-0.02 0.03,-0.02 0.03,-0.03 0.03,-0.02 0.04,-0.01 0.03,-0.02 0.04,-0.01 0.03,-0.02 0.04,-0.01 0.04,0 0.04,-0.01 0.04,0 0.05,-0.01 c 0.21,0 0.81,0.14 0.81,0.95 l 0,0.55 -0.24,0 0,-0.55 c 0,-0.58 -0.25,-0.64 -0.36,-0.64 -0.33,0 -0.37,0.45 -0.37,0.5 l 0,1.99 c 0,0.41 0,0.8 -0.36,1.17 -0.39,0.39 -0.89,0.54 -1.36,0.54 -0.82,0 -1.5,-0.46 -1.5,-1.12 0,-0.29 0.2,-0.46 0.45,-0.46 0.28,0 0.46,0.19 0.46,0.45 0,0.12 -0.05,0.45 -0.51,0.46 0.27,0.35 0.76,0.46 1.08,0.46 0.49,0 1.05,-0.39 1.05,-1.27 l 0,-0.37 0,-0.21 0,-0.99 c 0,-0.95 -0.71,-1.29 -1.16,-1.29 -0.49,0 -0.9,0.35 -0.9,0.85 0,0.54 0.42,1.37 2.06,1.43 l 0,0 0,0.21 c -0.5,-0.03 -1.2,-0.06 -1.83,-0.36 -0.74,-0.34 -0.99,-0.85 -0.99,-1.29 0,-0.81 0.96,-1.05 1.59,-1.05 0.66,0 1.11,0.39 1.3,0.86 z"
           inkscape:connector-curvature="0"
           style="fill:#000000;stroke-width:0" /><path
           id="path10320"
           d="m 243.18,664.13 -1.43,-0.11 0,-0.31 c 0.7,0 0.77,-0.07 0.77,-0.55 l 0,-5.17 c 0,-0.45 -0.11,-0.45 -0.77,-0.45 l 0,-0.31 c 0.33,0.01 0.85,0.04 1.1,0.04 0.25,0 0.74,-0.03 1.11,-0.04 l 0,0.31 c -0.67,0 -0.78,0 -0.78,0.45 z"
           inkscape:connector-curvature="0"
           style="fill:#000000;stroke-width:0" /><path
           id="path10322"
           d="m 248.32,660.57 0.01,0.03 0.01,0.03 0.01,0.03 0.02,0.02 0.01,0.03 0.02,0.02 0.01,0.03 0.01,0.02 0.03,0.04 0.03,0.04 0.04,0.04 0.03,0.04 0.03,0.03 0.03,0.03 0.04,0.02 0.03,0.03 0.04,0.02 0.03,0.02 0.03,0.02 0.04,0.02 0.03,0.01 0.03,0.01 0.04,0.01 0.03,0.01 0.03,0.01 0.03,0.01 0.03,0 0.03,0.01 0.02,0 0.03,0 0.02,0.01 0.03,0 0.02,0 0.02,0 0.02,0 0.01,0 0,0.31 c -0.23,-0.02 -0.51,-0.03 -0.74,-0.03 -0.18,0 -0.65,0.02 -0.87,0.03 l 0,-0.31 c 0.31,-0.01 0.47,-0.18 0.47,-0.43 0,-0.1 -0.01,-0.12 -0.06,-0.24 l -1.01,-2.44 -1.1,2.67 c -0.04,0.1 -0.06,0.14 -0.06,0.18 0,0.26 0.37,0.26 0.56,0.26 l 0,0.31 c -0.26,-0.01 -0.92,-0.03 -1.09,-0.03 -0.27,0 -0.66,0.01 -0.96,0.03 l 0,-0.31 c 0.47,0 0.66,0 0.8,-0.35 l 1.5,-3.63 c -0.05,-0.12 -0.19,-0.45 -0.25,-0.58 -0.22,-0.55 -0.5,-1.23 -1.14,-1.23 -0.05,0 -0.28,0 -0.47,0.18 0.31,0.04 0.39,0.25 0.39,0.41 0,0.26 -0.19,0.42 -0.42,0.42 -0.19,0 -0.41,-0.13 -0.41,-0.43 0,-0.44 0.41,-0.8 0.91,-0.8 0.63,0 1.04,0.57 1.28,1.13 z"
           inkscape:connector-curvature="0"
           style="fill:#000000;stroke-width:0" /><path
           id="path10324"
           d="m 253.33,661.22 0,0 0,0.01 0.01,0 0,0.01 0.01,0 0,0.01 0,0 0.01,0.01 0,0 0,0 0,0.01 0.01,0 0,0 0,0.01 0.01,0.01 0,0 0.01,0.01 0,0 0,0.01 0.01,0 0,0.01 0,0 0,0.01 0.01,0 0,0.01 0,0 0,0.01 0,0 0,0 0,0.01 0,0 0.01,0.01 0,0 0,0.01 0,0.01 c 0,0.13 -0.08,0.13 -0.26,0.13 l -3.19,0 -0.11,-1.6 0.25,0 c 0.06,1.01 0.25,1.38 1.35,1.38 l 1.13,0 -2.78,-3.75 c -0.08,-0.11 -0.08,-0.13 -0.08,-0.18 0,-0.14 0.06,-0.14 0.25,-0.14 l 3.29,0 0.17,1.86 -0.25,0 c -0.09,-1.17 -0.3,-1.61 -1.45,-1.61 l -1.18,0 z"
           inkscape:connector-curvature="0"
           style="fill:#000000;stroke-width:0" /><path
           id="path10326"
           d="m 254.98,659.53 0.01,0.21 c 0.06,1.48 0.89,1.73 1.23,1.73 1.03,0 1.13,-1.34 1.13,-1.73 l -2.36,0 -0.01,-0.21 2.77,0 c 0.22,0 0.25,0 0.25,0.21 0,0.98 -0.54,1.94 -1.78,1.94 -1.15,0 -2.07,-1.02 -2.07,-2.26 0,-1.33 1.05,-2.29 2.19,-2.29 1.21,0 1.66,1.1 1.66,1.29 0,0.1 -0.08,0.12 -0.13,0.12 -0.09,0 -0.11,-0.06 -0.13,-0.14 -0.34,-1.03 -1.24,-1.03 -1.34,-1.03 -0.5,0 -0.89,0.3 -1.12,0.67 -0.3,0.48 -0.3,1.13 -0.3,1.49 z"
           inkscape:connector-curvature="0"
           style="fill:#000000;stroke-width:0" /><path
           id="path10328"
           d="m 259.96,660.53 0,1.1 -1.38,-0.11 0,-0.31 c 0.7,0 0.78,-0.07 0.78,-0.56 l 0,-2.66 c 0,-0.45 -0.11,-0.45 -0.78,-0.45 l 0,-0.31 c 0.39,0.01 0.85,0.04 1.13,0.04 0.4,0 0.87,0 1.27,-0.04 l 0,0.31 -0.21,0 c -0.74,0 -0.76,0.11 -0.76,0.47 l 0,1.53 c 0,0.98 0.42,1.87 1.18,1.87 0.07,0 0.09,0 0.11,-0.01 -0.03,-0.01 -0.23,-0.13 -0.23,-0.39 0,-0.28 0.21,-0.43 0.42,-0.43 0.18,0 0.43,0.12 0.43,0.44 0,0.32 -0.31,0.61 -0.73,0.61 -0.73,0 -1.09,-0.67 -1.23,-1.1 z"
           inkscape:connector-curvature="0"
           style="fill:#000000;stroke-width:0" /></g>    </g>
  </g>
</svg>
