<?xml version="1.0" encoding="UTF-8" standalone="no"?>
<!-- Created with Inkscape (http://www.inkscape.org/) -->

<svg
   xmlns:ns0="http://www.iki.fi/pav/software/textext/"
   xmlns:dc="http://purl.org/dc/elements/1.1/"
   xmlns:cc="http://creativecommons.org/ns#"
   xmlns:rdf="http://www.w3.org/1999/02/22-rdf-syntax-ns#"
   xmlns:svg="http://www.w3.org/2000/svg"
   xmlns="http://www.w3.org/2000/svg"
   xmlns:xlink="http://www.w3.org/1999/xlink"
   xmlns:sodipodi="http://sodipodi.sourceforge.net/DTD/sodipodi-0.dtd"
   xmlns:inkscape="http://www.inkscape.org/namespaces/inkscape"
   width="479.99924"
   height="498.63373"
   viewBox="0 0 135.46646 140.72552"
   id="svg7597"
   version="1.1"
   inkscape:version="0.91 r13725"
   sodipodi:docname="gsm_cell.svg">
  <sodipodi:namedview
     id="base"
     pagecolor="#ffffff"
     bordercolor="#666666"
     borderopacity="1.0"
     inkscape:pageopacity="0.0"
     inkscape:pageshadow="2"
     inkscape:zoom="1.0783599"
     inkscape:cx="174.15732"
     inkscape:cy="260.71822"
     inkscape:document-units="mm"
     inkscape:current-layer="layer1"
     showgrid="false"
     inkscape:window-width="1436"
     inkscape:window-height="855"
     inkscape:window-x="4"
     inkscape:window-y="0"
     inkscape:window-maximized="1"
     inkscape:snap-bbox="true"
     inkscape:bbox-paths="true"
     inkscape:bbox-nodes="true"
     inkscape:snap-bbox-edge-midpoints="true"
     inkscape:snap-bbox-midpoints="true"
     inkscape:object-nodes="true"
     showguides="false"
     fit-margin-top="2"
     fit-margin-left="2"
     fit-margin-right="2"
     fit-margin-bottom="2"
     inkscape:snap-global="true"
     units="px"
     inkscape:guide-bbox="true"
     inkscape:snap-object-midpoints="true"
     inkscape:snap-center="true"
     inkscape:snap-grids="false">
    <inkscape:grid
       type="xygrid"
       id="grid12963"
       originx="-5.6445522"
       originy="-200.57057" />
    <sodipodi:guide
       position="90.31101,70.36276"
       orientation="1,0"
       id="guide9609" />
    <sodipodi:guide
       position="67.73323,92.940535"
       orientation="0,1"
       id="guide9611" />
    <sodipodi:guide
       position="49.388784,97.173875"
       orientation="1,0"
       id="guide9613" />
    <sodipodi:guide
       position="67.73323,70.36276"
       orientation="1,0"
       id="guide9651" />
    <sodipodi:guide
       position="67.73323,70.36276"
       orientation="0,1"
       id="guide9653" />
    <sodipodi:guide
       position="97.606048,116.80097"
       orientation="0,1"
       id="guide9733" />
    <sodipodi:guide
       position="94.544358,116.80097"
       orientation="1,0"
       id="guide9735" />
    <sodipodi:guide
       position="96.281118,23.924546"
       orientation="0,1"
       id="guide9752" />
  </sodipodi:namedview>
  <defs
     id="defs7599">
    <marker
       inkscape:stockid="Arrow1Mend"
       orient="auto"
       refY="0"
       refX="0"
       id="marker15805"
       style="overflow:visible"
       inkscape:isstock="true">
      <path
         inkscape:connector-curvature="0"
         id="path15807"
         d="M 0,0 5,-5 -12.5,0 5,5 0,0 Z"
         style="fill:#000000;fill-opacity:1;fill-rule:evenodd;stroke:#000000;stroke-width:1pt;stroke-opacity:1"
         transform="matrix(-0.4,0,0,-0.4,-4,0)" />
    </marker>
    <marker
       inkscape:stockid="Arrow1Mend"
       orient="auto"
       refY="0"
       refX="0"
       id="marker15801"
       style="overflow:visible"
       inkscape:isstock="true">
      <path
         inkscape:connector-curvature="0"
         id="path15803"
         d="M 0,0 5,-5 -12.5,0 5,5 0,0 Z"
         style="fill:#000000;fill-opacity:1;fill-rule:evenodd;stroke:#000000;stroke-width:1pt;stroke-opacity:1"
         transform="matrix(-0.4,0,0,-0.4,-4,0)" />
    </marker>
    <marker
       inkscape:stockid="Arrow1Mend"
       orient="auto"
       refY="0"
       refX="0"
       id="marker15797"
       style="overflow:visible"
       inkscape:isstock="true">
      <path
         inkscape:connector-curvature="0"
         id="path15799"
         d="M 0,0 5,-5 -12.5,0 5,5 0,0 Z"
         style="fill:#000000;fill-opacity:1;fill-rule:evenodd;stroke:#000000;stroke-width:1pt;stroke-opacity:1"
         transform="matrix(-0.4,0,0,-0.4,-4,0)" />
    </marker>
    <linearGradient
       inkscape:collect="always"
       id="linearGradient4439">
      <stop
         style="stop-color:#d6ddee;stop-opacity:1"
         offset="0"
         id="stop4441" />
      <stop
         id="stop4447"
         offset="0.5"
         style="stop-color:#f2f2f2;stop-opacity:1" />
      <stop
         style="stop-color:#cad1e1;stop-opacity:1"
         offset="1"
         id="stop4443" />
    </linearGradient>
    <linearGradient
       inkscape:collect="always"
       id="linearGradient6472">
      <stop
         style="stop-color:#d9d9d9;stop-opacity:1"
         offset="0"
         id="stop6474" />
      <stop
         id="stop6480"
         offset="0.5"
         style="stop-color:#f7f7f7;stop-opacity:1" />
      <stop
         style="stop-color:#e2e2e2;stop-opacity:1"
         offset="1"
         id="stop6476" />
    </linearGradient>
    <linearGradient
       inkscape:collect="always"
       id="linearGradient6482">
      <stop
         style="stop-color:#f7f7f7;stop-opacity:1"
         offset="0"
         id="stop6484" />
      <stop
         style="stop-color:#d8d8d8;stop-opacity:1"
         offset="1"
         id="stop6486" />
    </linearGradient>
    <linearGradient
       inkscape:collect="always"
       xlink:href="#linearGradient6482"
       id="linearGradient13843"
       gradientUnits="userSpaceOnUse"
       gradientTransform="matrix(0.26458334,0,0,0.26458334,67.246198,27.743729)"
       x1="-129.30832"
       y1="478.89877"
       x2="-100.16315"
       y2="487.73041" />
    <linearGradient
       inkscape:collect="always"
       xlink:href="#linearGradient6472"
       id="linearGradient13845"
       gradientUnits="userSpaceOnUse"
       gradientTransform="matrix(0.26458334,0,0,0.26458334,46.07953,27.743729)"
       x1="-21.128271"
       y1="492.03973"
       x2="-11.121107"
       y2="492.1449" />
    <linearGradient
       inkscape:collect="always"
       xlink:href="#linearGradient4439"
       id="linearGradient13847"
       gradientUnits="userSpaceOnUse"
       gradientTransform="matrix(0.26458334,0,0,0.26458334,-47.816298,42.118689)"
       x1="313.22784"
       y1="417.26389"
       x2="330.05222"
       y2="423.90863" />
  </defs>
  <metadata
     id="metadata7602">
    <rdf:RDF>
      <cc:Work
         rdf:about="">
        <dc:format>image/svg+xml</dc:format>
        <dc:type
           rdf:resource="http://purl.org/dc/dcmitype/StillImage" />
        <dc:title></dc:title>
      </cc:Work>
    </rdf:RDF>
  </metadata>
  <g
     inkscape:label="Layer 1"
     inkscape:groupmode="layer"
     id="layer1"
     transform="translate(-5.6445523,44.296099)">
    <path
       sodipodi:type="star"
       style="opacity:1;fill:#bfbfbf;fill-opacity:0.5;stroke:#bfbfbf;stroke-width:0.28200001;stroke-linecap:square;stroke-linejoin:round;stroke-miterlimit:4;stroke-dasharray:none;stroke-dashoffset:0;stroke-opacity:1"
       id="path9607-3-9"
       sodipodi:sides="6"
       sodipodi:cx="73.377777"
       sodipodi:cy="26.066654"
       sodipodi:r1="26.811113"
       sodipodi:r2="11.994445"
       sodipodi:arg1="-1.5707961"
       sodipodi:arg2="-1.0471972"
       inkscape:flatsided="true"
       inkscape:rounded="0"
       inkscape:randomized="0"
       d="m 73.377783,-0.74445915 23.219102,13.40556215 -6e-6,26.811113 -23.219108,13.405552 -23.219102,-13.405562 6e-6,-26.811114 z"
       transform="matrix(0.8660254,0.49999996,-0.50000002,0.86602539,22.864106,-79.634822)" />
    <path
       sodipodi:type="star"
       style="opacity:1;fill:#bfbfbf;fill-opacity:0.5;stroke:#bfbfbf;stroke-width:0.28200001;stroke-linecap:square;stroke-linejoin:round;stroke-miterlimit:4;stroke-dasharray:none;stroke-dashoffset:0;stroke-opacity:1"
       id="path9607-3-9-1"
       sodipodi:sides="6"
       sodipodi:cx="73.377777"
       sodipodi:cy="26.066654"
       sodipodi:r1="26.811113"
       sodipodi:r2="11.994445"
       sodipodi:arg1="-1.5707961"
       sodipodi:arg2="-1.0471972"
       inkscape:flatsided="true"
       inkscape:rounded="0"
       inkscape:randomized="0"
       d="m 73.377783,-0.74445915 23.219102,13.40556215 -6e-6,26.811113 -23.219108,13.405552 -23.219102,-13.405562 6e-6,-26.811114 z"
       transform="matrix(0.8660254,0.49999996,-0.50000002,0.86602539,22.864106,13.241591)" />
    <path
       sodipodi:type="star"
       style="opacity:1;fill:#bfbfbf;fill-opacity:0.5;stroke:#bfbfbf;stroke-width:0.28200001;stroke-linecap:square;stroke-linejoin:round;stroke-miterlimit:4;stroke-dasharray:none;stroke-dashoffset:0;stroke-opacity:1"
       id="path9607-3-4"
       sodipodi:sides="6"
       sodipodi:cx="73.377777"
       sodipodi:cy="26.066654"
       sodipodi:r1="26.811113"
       sodipodi:r2="11.994445"
       sodipodi:arg1="-1.5707961"
       sodipodi:arg2="-1.0471972"
       inkscape:flatsided="true"
       inkscape:rounded="0"
       inkscape:randomized="0"
       d="m 73.377783,-0.74445915 23.219102,13.40556215 -6e-6,26.811113 -23.219108,13.405552 -23.219102,-13.405562 6e-6,-26.811114 z"
       transform="matrix(0.8660254,0.49999996,-0.50000002,0.86602539,-17.352572,-56.415726)" />
    <path
       sodipodi:type="star"
       style="opacity:1;fill:#bfbfbf;fill-opacity:0.5;stroke:#bfbfbf;stroke-width:0.28200001;stroke-linecap:square;stroke-linejoin:round;stroke-miterlimit:4;stroke-dasharray:none;stroke-dashoffset:0;stroke-opacity:1"
       id="path9607-3-6-7"
       sodipodi:sides="6"
       sodipodi:cx="73.377777"
       sodipodi:cy="26.066654"
       sodipodi:r1="26.811113"
       sodipodi:r2="11.994445"
       sodipodi:arg1="-1.5707961"
       sodipodi:arg2="-1.0471972"
       inkscape:flatsided="true"
       inkscape:rounded="0"
       inkscape:randomized="0"
       d="m 73.377783,-0.74445915 23.219102,13.40556215 -6e-6,26.811113 -23.219108,13.405552 -23.219102,-13.405562 6e-6,-26.811114 z"
       transform="matrix(0.8660254,0.49999996,-0.50000002,0.86602539,-17.352583,-9.9775155)" />
    <path
       sodipodi:type="star"
       style="opacity:1;fill:#bfbfbf;fill-opacity:0.5;stroke:#bfbfbf;stroke-width:0.28200001;stroke-linecap:square;stroke-linejoin:round;stroke-miterlimit:4;stroke-dasharray:none;stroke-dashoffset:0;stroke-opacity:1"
       id="path9607-3-6"
       sodipodi:sides="6"
       sodipodi:cx="73.377777"
       sodipodi:cy="26.066654"
       sodipodi:r1="26.811113"
       sodipodi:r2="11.994445"
       sodipodi:arg1="-1.5707961"
       sodipodi:arg2="-1.0471972"
       inkscape:flatsided="true"
       inkscape:rounded="0"
       inkscape:randomized="0"
       d="m 73.377783,-0.74445915 23.219102,13.40556215 -6e-6,26.811113 -23.219108,13.405552 -23.219102,-13.405562 6e-6,-26.811114 z"
       transform="matrix(0.8660254,0.49999996,-0.50000002,0.86602539,63.080756,-9.9775102)" />
    <path
       sodipodi:type="star"
       style="opacity:1;fill:#bfbfbf;fill-opacity:0.5;stroke:#bfbfbf;stroke-width:0.28200001;stroke-linecap:square;stroke-linejoin:round;stroke-miterlimit:4;stroke-dasharray:none;stroke-dashoffset:0;stroke-opacity:1"
       id="path9607-3"
       sodipodi:sides="6"
       sodipodi:cx="73.377777"
       sodipodi:cy="26.066654"
       sodipodi:r1="26.811113"
       sodipodi:r2="11.994445"
       sodipodi:arg1="-1.5707961"
       sodipodi:arg2="-1.0471972"
       inkscape:flatsided="true"
       inkscape:rounded="0"
       inkscape:randomized="0"
       d="m 73.377783,-0.74445915 23.219102,13.40556215 -6e-6,26.811113 -23.219108,13.405552 -23.219102,-13.405562 6e-6,-26.811114 z"
       transform="matrix(0.8660254,0.49999996,-0.50000002,0.86602539,63.080768,-56.415719)" />
    <path
       sodipodi:type="star"
       style="opacity:1;fill:#bfbfbf;fill-opacity:0.5;stroke:#000000;stroke-width:0.28222224;stroke-linecap:square;stroke-linejoin:round;stroke-miterlimit:4;stroke-dasharray:1.12888893, 1.12888893;stroke-dashoffset:0;stroke-opacity:1"
       id="path9607"
       sodipodi:sides="6"
       sodipodi:cx="73.377777"
       sodipodi:cy="26.066654"
       sodipodi:r1="26.811113"
       sodipodi:r2="11.994445"
       sodipodi:arg1="-1.5707961"
       sodipodi:arg2="-1.0471972"
       inkscape:flatsided="true"
       inkscape:rounded="0"
       inkscape:randomized="0"
       d="m 73.377783,-0.74445915 23.219102,13.40556215 -6e-6,26.811113 -23.219108,13.405552 -23.219102,-13.405562 6e-6,-26.811114 z"
       transform="matrix(0.8660254,0.49999997,-0.50000003,0.8660254,22.864086,-33.196617)" />
    <path
       style="opacity:1;fill:#ff4040;fill-opacity:1;stroke:none;stroke-width:0.56444448;stroke-linecap:square;stroke-linejoin:round;stroke-miterlimit:4;stroke-dasharray:none;stroke-dashoffset:0;stroke-opacity:1"
       id="path9563-9"
       sodipodi:type="arc"
       sodipodi:cx="73.377777"
       sodipodi:cy="26.066652"
       sodipodi:rx="2.8222163"
       sodipodi:ry="2.8222225"
       sodipodi:start="2.6179939"
       sodipodi:end="3.6651914"
       d="m 70.933666,27.477763 a 2.8222163,2.8222225 0 0 1 0,-2.822222 l 2.444111,1.411111 z" />
    <path
       style="opacity:1;fill:#4040ff;fill-opacity:1;stroke:none;stroke-width:0.56444448;stroke-linecap:square;stroke-linejoin:round;stroke-miterlimit:4;stroke-dasharray:none;stroke-dashoffset:0;stroke-opacity:1"
       id="path9563-9-1"
       sodipodi:type="arc"
       sodipodi:cx="73.377777"
       sodipodi:cy="26.066652"
       sodipodi:rx="2.8222163"
       sodipodi:ry="2.8222225"
       sodipodi:start="4.712389"
       sodipodi:end="5.7595865"
       d="m 73.377777,23.24443 a 2.8222163,2.8222225 0 0 1 2.444111,1.411111 l -2.444111,1.411111 z" />
    <path
       style="opacity:1;fill:#40ff40;fill-opacity:1;stroke:none;stroke-width:0.56444448;stroke-linecap:square;stroke-linejoin:round;stroke-miterlimit:4;stroke-dasharray:none;stroke-dashoffset:0;stroke-opacity:1"
       id="path9563-9-6"
       sodipodi:type="arc"
       sodipodi:cx="73.377777"
       sodipodi:cy="26.066652"
       sodipodi:rx="2.8222163"
       sodipodi:ry="2.8222225"
       sodipodi:start="0.52359878"
       sodipodi:end="1.5707963"
       d="m 75.821888,27.477764 a 2.8222163,2.8222225 0 0 1 -2.444111,1.411111 l 0,-2.822223 z" />
    <path
       d="m 95.955582,26.066652 a 22.577782,22.577778 0 0 1 -11.288891,19.552929 22.577782,22.577778 0 0 1 -22.577782,1e-6 L 73.3778,26.066652 Z"
       sodipodi:end="2.0943951"
       sodipodi:start="0"
       sodipodi:ry="22.577778"
       sodipodi:rx="22.577782"
       sodipodi:cy="26.066652"
       sodipodi:cx="73.3778"
       sodipodi:type="arc"
       id="path8620"
       style="opacity:1;fill:#bfffbf;fill-opacity:0.5;stroke:#000000;stroke-width:0.56444448;stroke-linecap:square;stroke-linejoin:round;stroke-miterlimit:4;stroke-dasharray:none;stroke-dashoffset:0;stroke-opacity:1" />
    <path
       d="M 62.088909,45.619582 A 22.577782,22.577778 0 0 1 50.800018,26.066652 22.577782,22.577778 0 0 1 62.088909,6.5137232 L 73.3778,26.066652 Z"
       sodipodi:end="4.1887902"
       sodipodi:start="2.0943951"
       sodipodi:ry="22.577778"
       sodipodi:rx="22.577782"
       sodipodi:cy="26.066652"
       sodipodi:cx="73.3778"
       sodipodi:type="arc"
       id="path8620-4"
       style="opacity:1;fill:#ffbfbf;fill-opacity:0.5;stroke:#000000;stroke-width:0.56444448;stroke-linecap:square;stroke-linejoin:round;stroke-miterlimit:4;stroke-dasharray:none;stroke-dashoffset:0;stroke-opacity:1" />
    <path
       d="m 62.088909,6.5137232 a 22.577782,22.577778 0 0 1 22.577782,-1e-7 22.577782,22.577778 0 0 1 11.288891,19.5529289 l -22.577782,0 z"
       sodipodi:end="0"
       sodipodi:start="4.1887902"
       sodipodi:ry="22.577778"
       sodipodi:rx="22.577782"
       sodipodi:cy="26.066652"
       sodipodi:cx="73.3778"
       sodipodi:type="arc"
       id="path8620-4-7"
       style="opacity:1;fill:#bfbfff;fill-opacity:0.5;stroke:#000000;stroke-width:0.56444448;stroke-linecap:square;stroke-linejoin:round;stroke-miterlimit:4;stroke-dasharray:none;stroke-dashoffset:0;stroke-opacity:1" />
    <g
       style="font-style:normal;font-variant:normal;font-weight:normal;font-stretch:normal;letter-spacing:normal;word-spacing:normal;text-anchor:start;fill:#4040ff;fill-opacity:1;fill-rule:evenodd;stroke:#000000;stroke-linecap:butt;stroke-linejoin:miter;stroke-miterlimit:10.43299961;stroke-dasharray:none;stroke-dashoffset:0;stroke-opacity:1"
       ns0:preamble=""
       ns0:text="$1$"
       word-spacing="normal"
       letter-spacing="normal"
       font-size-adjust="none"
       font-stretch="normal"
       font-weight="normal"
       font-variant="normal"
       font-style="normal"
       stroke-miterlimit="10.433"
       xml:space="preserve"
       transform="matrix(0.74999999,0,0,-0.75,-90.447747,510.18285)"
       id="content"><path
         id="path8835"
         d="m 226.36,663.59 0,0.01 0,0.01 0,0.02 0,0.01 0,0 0,0.01 0,0.01 0,0.01 0,0.01 0,0.01 0,0.01 0,0.01 0,0 -0.01,0.01 0,0.01 0,0 0,0.01 0,0.01 0,0.01 0,0.01 -0.01,0.01 0,0.01 0,0.01 -0.01,0 0,0.01 -0.01,0.01 0,0 -0.01,0.01 -0.01,0 -0.01,0.01 0,0 -0.01,0 0,0 -0.01,0 0,0 -0.01,0 -0.01,0.01 0,0 -0.01,0 -0.01,0 0,0 -0.01,0 -0.01,0 -0.01,0 0,0 -0.01,0 -0.01,0 -0.01,0 -0.01,0 -0.01,0 -0.01,0 -0.01,0 c -0.62,-0.63 -1.49,-0.63 -1.81,-0.63 l 0,-0.31 c 0.2,0 0.78,0 1.3,0.25 l 0,-5.14 c 0,-0.36 -0.03,-0.48 -0.92,-0.48 l -0.32,0 0,-0.31 c 0.35,0.04 1.21,0.04 1.61,0.04 0.4,0 1.26,0 1.61,-0.04 l 0,0.31 -0.32,0 c -0.89,0 -0.92,0.11 -0.92,0.48 z"
         inkscape:connector-curvature="0"
         style="fill:#4040ff;fill-opacity:1;stroke-width:0" /></g>    <g
       id="g9127"
       transform="matrix(0.74999999,0,0,-0.75,-107.34734,521.47165)"
       xml:space="preserve"
       stroke-miterlimit="10.433"
       font-style="normal"
       font-variant="normal"
       font-weight="normal"
       font-stretch="normal"
       font-size-adjust="none"
       letter-spacing="normal"
       word-spacing="normal"
       ns0:text="$2$"
       ns0:preamble=""
       style="font-style:normal;font-variant:normal;font-weight:normal;font-stretch:normal;letter-spacing:normal;word-spacing:normal;text-anchor:start;fill:#ff4040;fill-opacity:1;fill-rule:evenodd;stroke:#000000;stroke-linecap:butt;stroke-linejoin:miter;stroke-miterlimit:10.43299961;stroke-dasharray:none;stroke-dashoffset:0;stroke-opacity:1"><path
         d="m 224.7,658 1.05,1.02 c 1.55,1.37 2.15,1.91 2.15,2.9 0,1.14 -0.9,1.93 -2.11,1.93 -1.12,0 -1.86,-0.91 -1.86,-1.8 0,-0.55 0.5,-0.55 0.53,-0.55 0.17,0 0.51,0.12 0.51,0.52 0,0.26 -0.18,0.52 -0.52,0.52 -0.08,0 -0.1,0 -0.13,-0.01 0.23,0.64 0.76,1.01 1.34,1.01 0.91,0 1.33,-0.8 1.33,-1.62 0,-0.79 -0.49,-1.58 -1.04,-2.19 l -1.91,-2.13 c -0.11,-0.11 -0.11,-0.13 -0.11,-0.37 l 3.69,0 0.28,1.73 -0.25,0 c -0.05,-0.3 -0.12,-0.73 -0.22,-0.88 C 227.36,658 226.71,658 226.49,658 Z"
         id="path9129"
         inkscape:connector-curvature="0"
         style="fill:#ff4040;fill-opacity:1;stroke-width:0" /></g>    <g
       style="font-style:normal;font-variant:normal;font-weight:normal;font-stretch:normal;letter-spacing:normal;word-spacing:normal;text-anchor:start;fill:#40ff40;fill-opacity:1;fill-rule:evenodd;stroke:#000000;stroke-linecap:butt;stroke-linejoin:miter;stroke-miterlimit:10.43299961;stroke-dasharray:none;stroke-dashoffset:0;stroke-opacity:1"
       ns0:preamble=""
       ns0:text="$3$"
       word-spacing="normal"
       letter-spacing="normal"
       font-size-adjust="none"
       font-stretch="normal"
       font-weight="normal"
       font-variant="normal"
       font-style="normal"
       stroke-miterlimit="10.433"
       xml:space="preserve"
       transform="matrix(0.75,0,0,-0.75,-90.414015,532.6817)"
       id="g9417"><path
         id="path9419"
         d="m 226.32,660.73 0.07,0.03 0.08,0.03 0.07,0.03 0.07,0.03 0.07,0.04 0.07,0.04 0.06,0.04 0.07,0.04 0.06,0.04 0.06,0.05 0.06,0.05 0.06,0.05 0.05,0.05 0.05,0.05 0.05,0.06 0.05,0.05 0.04,0.06 0.05,0.06 0.04,0.06 0.03,0.06 0.04,0.07 0.03,0.06 0.03,0.07 0.03,0.06 0.02,0.07 0.02,0.07 0.02,0.07 0.01,0.07 0.02,0.07 0,0.07 0.01,0.08 0,0.07 c 0,0.81 -0.87,1.37 -1.83,1.37 -1,0 -1.76,-0.59 -1.76,-1.35 0,-0.33 0.22,-0.52 0.51,-0.52 0.3,0 0.5,0.22 0.5,0.51 0,0.5 -0.46,0.5 -0.61,0.5 0.3,0.48 0.96,0.61 1.32,0.61 0.41,0 0.95,-0.22 0.95,-1.11 0,-0.12 -0.02,-0.7 -0.27,-1.13 -0.3,-0.48 -0.64,-0.51 -0.89,-0.52 -0.08,-0.01 -0.32,-0.03 -0.39,-0.03 -0.08,-0.01 -0.15,-0.02 -0.15,-0.12 0,-0.11 0.07,-0.11 0.24,-0.11 l 0.44,0 c 0.82,0 1.18,-0.67 1.18,-1.65 0,-1.35 -0.68,-1.64 -1.12,-1.64 -0.43,0 -1.17,0.17 -1.52,0.76 0.35,-0.05 0.65,0.17 0.65,0.55 0,0.35 -0.26,0.55 -0.55,0.55 -0.24,0 -0.56,-0.14 -0.56,-0.57 0,-0.91 0.92,-1.56 2.01,-1.56 1.21,0 2.12,0.9 2.12,1.91 0,0.82 -0.63,1.59 -1.66,1.8 z"
         inkscape:connector-curvature="0"
         style="fill:#40ff40;fill-opacity:1;stroke-width:0" /></g>  </g>
</svg>
