<?xml version="1.0" encoding="UTF-8" standalone="no"?>
<!-- Created with Inkscape (http://www.inkscape.org/) -->

<svg
   xmlns:dc="http://purl.org/dc/elements/1.1/"
   xmlns:cc="http://creativecommons.org/ns#"
   xmlns:rdf="http://www.w3.org/1999/02/22-rdf-syntax-ns#"
   xmlns:svg="http://www.w3.org/2000/svg"
   xmlns="http://www.w3.org/2000/svg"
   xmlns:sodipodi="http://sodipodi.sourceforge.net/DTD/sodipodi-0.dtd"
   xmlns:inkscape="http://www.inkscape.org/namespaces/inkscape"
   id="svg8068"
   version="1.1"
   inkscape:version="0.91 r13725"
   xml:space="preserve"
   width="402.5"
   height="32.5"
   viewBox="0 0 402.5 32.5"
   sodipodi:docname="DTU-Compute-B-UK.svg"><metadata
     id="metadata8074"><rdf:RDF><cc:Work
         rdf:about=""><dc:format>image/svg+xml</dc:format><dc:type
           rdf:resource="http://purl.org/dc/dcmitype/StillImage" /><dc:title></dc:title></cc:Work></rdf:RDF></metadata><defs
     id="defs8072"><clipPath
       clipPathUnits="userSpaceOnUse"
       id="clipPath8084"><path
         d="M 0,251.25 0,0 l 3219.99,0 0,251.25 -3219.99,0 z"
         id="path8086"
         inkscape:connector-curvature="0" /></clipPath></defs><sodipodi:namedview
     pagecolor="#ffffff"
     bordercolor="#666666"
     borderopacity="1"
     objecttolerance="10"
     gridtolerance="10"
     guidetolerance="10"
     inkscape:pageopacity="0"
     inkscape:pageshadow="2"
     inkscape:window-width="1436"
     inkscape:window-height="855"
     id="namedview8070"
     showgrid="false"
     inkscape:zoom="2.1639752"
     inkscape:cx="176.63734"
     inkscape:cy="16.25"
     inkscape:window-x="4"
     inkscape:window-y="0"
     inkscape:window-maximized="1"
     inkscape:current-layer="g8076" /><g
     id="g8076"
     inkscape:groupmode="layer"
     inkscape:label="DTU-Compute-B-UK"
     transform="matrix(1.25,0,0,-1.25,0,32.5)"><g
       id="g8078"
       transform="scale(0.1,0.1)"><g
         id="g8080"><g
           id="g8082"
           clip-path="url(#clipPath8084)"><path
             d="m 0,23.5742 35.7188,0 0,226.777 -35.7188,0 0,-226.777 z"
             style="fill:#bf2033;fill-opacity:1;fill-rule:nonzero;stroke:none"
             id="path8088"
             inkscape:connector-curvature="0" /><path
             d="m 897.484,172.832 c 1.086,0.086 2.161,-0.508 2.161,-1.719 l 0,-6.008 c 0,-1.746 -0.422,-2.566 -2.465,-2.937 -7.34,-1.348 -12.985,-2.051 -22.422,-2.051 -16.711,0 -28.199,9.336 -28.199,32.363 l 0,4.18 c 0,17.969 6.953,32.168 27.777,32.168 21.062,0 27.535,-14.676 27.535,-32.168 l 0,-3.769 c 0,-1.758 -0.781,-2.832 -2.344,-2.832 l -39.742,0 0,-1.024 c 0,-10.637 4.27,-17.433 15.57,-17.433 7.875,0 16.243,0.761 21.653,1.191 l 0.476,0.039 z m -8.964,27.695 c 0,11.602 -5.165,17.004 -14.184,17.004 -8.902,0 -14.492,-5.656 -14.492,-17.004 l 0,-0.793 28.676,0 0,0.793 z m -343.223,-37.05 c 0,-1.309 0.969,-2.461 2.226,-2.461 l 8.715,0 c 1.324,0 2.293,1.211 2.293,2.461 l 0,49.668 c 4.985,2.578 9.434,4.328 12.86,4.328 6.496,0 8.781,-2.278 8.781,-12.141 l 0,-41.855 c 0,-1.309 0.961,-2.461 2.226,-2.461 l 8.715,0 c 1.325,0 2.282,1.211 2.282,2.461 l 0,41.855 c 0,3.301 -0.243,6.367 -0.782,9.016 4.512,2.039 9.321,3.125 12.625,3.125 6.496,0 9.801,-2.59 9.801,-12.258 l 0,-41.738 c 0,-1.309 1.082,-2.461 2.406,-2.461 l 8.414,0 c 1.325,0 2.407,1.152 2.407,2.461 l 0,43.144 c 0,15.402 -7.645,22.277 -19.715,22.277 -7.278,0 -13.531,-1.925 -19.903,-5.168 -2.886,3.418 -7.039,5.168 -13.046,5.168 -6.856,0 -12.461,-2.57 -17.942,-6.105 l -0.098,2.793 c -0.046,1.328 -1.109,2.402 -2.429,2.402 l -22.629,0 c -1.328,0 -2.348,-1.074 -2.348,-2.402 0,0 0,0.547 0,-0.781 0,-1.309 0.891,-2.403 2.348,-2.832 l 12.793,-3.672 0,-54.824 z m 261.289,14.257 c 0,-14.668 5.418,-17.617 17.738,-17.617 2.461,0 5.348,0.313 7.996,0.723 1.563,0.246 2.227,0.957 2.227,2.109 l 0,5.879 c 0,1.211 -0.902,1.75 -2.527,1.75 l -6.551,0 c -4.571,0 -5.598,0.848 -5.598,7.156 l 0,39.864 11.906,0 c 1.325,0 2.407,1.074 2.407,2.402 l 0,5.586 c 0,1.328 -1.082,2.402 -2.407,2.402 l -11.906,0 0,12.754 c 0,1.348 -1.121,2.11 -2.281,1.914 l -8.719,-1.433 c -1.367,-0.239 -2.285,-1.243 -2.285,-2.414 l 0,-10.821 -12.758,0 c -1.316,0 -2.344,-0.957 -2.344,-2.285 l 0,-0.957 c 0,-1.328 1.028,-2.324 2.344,-2.793 l 12.758,-3.75 0,-40.469 z M 495.793,160.117 c -18.277,0 -27.719,12.207 -27.719,29.641 l 0,9.441 c 0,17.434 9.442,29.629 27.719,29.629 18.273,0 27.777,-12.195 27.777,-29.629 l 0,-9.441 c 0,-17.434 -9.504,-29.641 -27.777,-29.641 z m 14.551,39.082 c 0,11.055 -4.696,18.153 -14.551,18.153 -9.801,0 -14.488,-7.04 -14.488,-18.153 l 0,-9.441 c 0,-11.067 4.629,-18.156 14.488,-18.156 9.797,0 14.551,7.031 14.551,18.156 l 0,9.441 z m 267.676,26.328 c 0,1.328 -1.086,2.461 -2.344,2.461 l -8.481,0 c -1.328,0 -2.406,-1.191 -2.406,-2.461 l 0,-49.414 c -4.445,-2.285 -10.16,-4.746 -14.906,-4.746 -8.633,0 -11.731,3.496 -11.731,14.785 l 0,39.375 c 0,1.328 -1.078,2.461 -2.398,2.461 l -8.418,0 c -1.324,0 -2.402,-1.133 -2.402,-2.461 l 0,-39.375 c 0,-15.261 4.722,-25.976 20.859,-25.976 7.391,0 13.355,2.16 19.562,6.172 l 0.106,-2.93 c 0.047,-1.309 1.105,-2.402 2.43,-2.402 l 20.918,0 c 1.324,0 2.402,1.093 2.402,2.402 0,0 0,-0.711 0,0.605 0,1.368 -1.055,2.676 -2.402,3.106 l -10.789,3.484 0,54.914 z m -84.372,-26.629 c 0,11.239 -2.687,18.993 -12.261,18.993 -4.688,0 -11.719,-2.743 -14.793,-4.707 l 0,-41.094 c 3.664,-0.606 9.437,-1.035 12.804,-1.035 11.063,0 14.25,7.519 14.25,18.886 l 0,8.957 z m -40.281,19.403 -12.5,3.672 c -1.457,0.429 -2.347,1.523 -2.347,2.832 0,1.328 0,0.781 0,0.781 0,1.328 1.027,2.402 2.347,2.402 l 22.332,0 c 1.274,0 2.375,-1.054 2.426,-2.351 0.035,-1.028 0.098,-2.844 0.098,-2.844 3.933,2.578 10.859,6.055 17.367,6.055 16.39,0 23.785,-11.563 23.785,-29.95 l 0,-8.957 c 0,-18.828 -9.02,-29.824 -27.477,-29.824 -3.304,0 -8.238,0.36 -12.804,1.086 l 0,-21.523 c 0,-1.262 -1.024,-2.356 -2.348,-2.356 l -8.598,0 c -1.257,0 -2.281,1.035 -2.281,2.356 l 0,78.621 z M 456.055,173.125 c -4.274,-0.359 -12.524,-0.937 -19.137,-0.937 -5.156,0 -9.715,1.425 -13.094,4.882 -5.148,5.254 -6.086,12.559 -6.086,23.711 l 0,9.805 c 0,11.387 1.008,18.848 6.254,23.973 3.363,3.293 7.848,4.601 12.926,4.601 6.672,0 15.195,-0.84 19.477,-1.015 0.125,0 0.242,0 0.3,0 1.504,0 1.926,0.839 1.926,1.925 l 0,7.09 c 0,1.387 -0.953,1.883 -2.281,2.168 -3.535,0.731 -11.184,1.922 -19.602,1.922 -7.75,0 -16.812,-1.727 -23.347,-8.066 -7.079,-6.864 -9.539,-16.504 -9.539,-31.758 l 0,-11.504 c 0,-14.746 2.343,-24.297 9.128,-31.192 6.575,-6.699 15.844,-8.625 23.758,-8.625 9.742,0 16.067,0.961 19.477,1.75 1.453,0.333 2.523,1.016 2.523,2.579 l 0,6.492 c 0,1.496 -0.789,2.355 -2.32,2.219 l -0.363,-0.02 z m -262.996,-3.867 c -6.387,-6.297 -16.012,-9.16 -27.692,-9.16 -8.84,0 -19.238,0.734 -22.789,1.328 -1.801,0.301 -2.828,1.269 -2.828,3.367 l 0,81.769 c 0,2.032 1.027,3.067 2.828,3.36 3.551,0.605 13.949,1.328 22.789,1.328 11.571,0 21.125,-2.773 27.508,-8.934 7.59,-7.336 9.582,-17.394 9.582,-31.007 l 0,-11.27 c 0,-13.457 -1.922,-23.406 -9.398,-30.781 z m -4.368,41.484 c 0,11.602 -1.527,18.77 -6.679,23.535 -4.18,3.868 -10.02,5.246 -16.645,5.246 -5.051,0 -8.48,-0.175 -11.722,-0.363 l 0,-67.031 c 3.179,-0.176 6.671,-0.293 11.722,-0.293 6.895,0 12.938,1.496 17.149,5.742 4.843,4.902 6.175,11.777 6.175,23.027 l 0,10.137 z m 127.231,-50.644 c -19.418,0 -31.93,9.382 -31.93,33.672 l 0,54.289 c 0,1.269 1.028,2.293 2.352,2.293 l 9.199,0 c 1.258,0 2.344,-0.965 2.344,-2.293 l 0,-54.289 c 0,-14.61 4.086,-22.059 18.035,-22.059 13.945,0 18.031,7.391 18.031,22.059 l 0,54.289 c 0,1.269 1.024,2.293 2.348,2.293 l 9.195,0 c 1.266,0 2.348,-0.965 2.348,-2.293 l 0,-54.289 c 0,-24.29 -12.508,-33.672 -31.922,-33.672 z m -45.594,78.582 -22.242,0 0,-75.27 c 0,-1.262 -0.961,-2.402 -2.285,-2.402 l -9.258,0 c -1.266,0 -2.285,1.082 -2.285,2.402 l 0,75.27 -22.246,0 c -1.321,0 -2.403,0.726 -2.403,2.043 l 0,7.402 c 0,1.262 1.082,2.227 2.403,2.227 l 58.316,0 c 1.328,0 2.348,-0.907 2.348,-2.227 l 0,-7.402 c 0,-1.258 -1.02,-2.043 -2.348,-2.043"
             style="fill:#231f20;fill-opacity:1;fill-rule:nonzero;stroke:none"
             id="path8090"
             inkscape:connector-curvature="0" /><path
             d="m 3209.28,62.4023 c 0,13.5821 -5.17,18.875 -15.76,18.875 -10.33,0 -16.11,-5.8867 -16.11,-18.875 l 0,-1.0859 31.87,0 0,1.0859 z m 8.42,-9.1406 -40.29,0 0,-1.6797 c 0,-14.3086 5.66,-19.6015 16.72,-19.6015 6.97,0 15.87,0.4804 21.4,1.3203 0.24,0 0.35,0 0.61,0 0.95,0 1.91,-0.4805 1.91,-1.6797 l 0,-4.0938 c 0,-1.5585 -0.48,-2.3984 -2.4,-2.7617 -6.86,-1.3203 -13.47,-2.039 -21.52,-2.039 -13.83,0 -27.3,6.4922 -27.3,28.8554 l 0,10.8203 c 0,17.1993 9.5,28.1329 26.69,28.1329 17.56,0 26.47,-11.0625 26.47,-28.1329 l 0,-6.4961 c 0,-1.5585 -0.85,-2.6445 -2.29,-2.6445 z M 3153.11,24.043 c -3.96,-0.7227 -9.37,-1.3164 -15.02,-1.3164 -16.36,0 -25.61,11.5429 -25.61,29.2148 l 0,9.375 c 0,17.6758 9.14,29.2188 25.61,29.2188 5.53,0 11.06,-0.5938 15.02,-1.3164 1.93,-0.3633 2.41,-0.9649 2.41,-2.6485 l 0,-4.3242 c 0,-1.2109 -0.96,-1.8086 -2.04,-1.8086 -0.24,0 -0.37,0 -0.49,0 -5.29,0.5977 -9.01,0.8398 -14.9,0.8398 -9.63,0 -15.04,-6.375 -15.04,-19.9609 l 0,-9.375 c 0,-13.4648 5.29,-19.9609 15.04,-19.9609 5.89,0 9.61,0.2461 14.9,0.8398 0.12,0 0.25,0 0.49,0 1.08,0 2.04,-0.5937 2.04,-1.8047 l 0,-4.3281 c 0,-1.5586 -0.48,-2.2852 -2.41,-2.6445 z m -57.24,-0.4805 -5.77,0 c -1.33,0 -2.4,1.0859 -2.4,2.4063 l 0,39.5585 c 0,12.1485 -4.09,15.8672 -13.22,15.8672 -5.06,0 -10.71,-1.9218 -16.23,-4.6836 l 0,-50.7421 c 0,-1.2032 -1.1,-2.4063 -2.42,-2.4063 l -5.88,0 c -1.21,0 -2.29,1.0859 -2.29,2.4063 l 0,61.3281 c 0,1.3164 0.96,2.3984 2.29,2.3984 l 6.01,0 c 1.31,0 2.29,-1.082 2.29,-2.3984 l 0,-2.2852 c 6.6,3.7188 12.01,5.5235 19.11,5.5235 14.42,0 20.93,-9.0118 20.93,-25.0079 l 0,-39.5585 c 0,-1.3204 -1.1,-2.4063 -2.42,-2.4063 z m -73.35,38.8398 c 0,13.5821 -5.17,18.875 -15.76,18.875 -10.33,0 -16.11,-5.8867 -16.11,-18.875 l 0,-1.0859 31.87,0 0,1.0859 z m 8.42,-9.1406 -40.29,0 0,-1.6797 c 0,-14.3086 5.66,-19.6015 16.72,-19.6015 6.97,0 15.88,0.4804 21.4,1.3203 0.24,0 0.36,0 0.61,0 0.96,0 1.91,-0.4805 1.91,-1.6797 l 0,-4.0938 c 0,-1.5585 -0.47,-2.3984 -2.4,-2.7617 -6.85,-1.3203 -13.47,-2.039 -21.52,-2.039 -13.83,0 -27.3,6.4922 -27.3,28.8554 l 0,10.8203 c 0,17.1993 9.51,28.1329 26.69,28.1329 17.56,0 26.47,-11.0625 26.47,-28.1329 l 0,-6.4961 c 0,-1.5585 -0.85,-2.6445 -2.29,-2.6445 z m -68.9,-29.6992 -5.78,0 c -1.31,0 -2.41,1.0859 -2.41,2.4063 l 0,61.3281 c 0,1.3164 1.1,2.3984 2.41,2.3984 l 5.78,0 c 1.32,0 2.4,-1.082 2.4,-2.3984 l 0,-61.3281 c 0,-1.3204 -1.08,-2.4063 -2.4,-2.4063 z m 0.23,76.7105 -6.13,0 c -1.32,0 -2.4,1.082 -2.4,2.415 l 0,9.617 c 0,1.316 1.08,2.402 2.4,2.402 l 6.13,0 c 1.33,0 2.41,-1.086 2.41,-2.402 l 0,-9.617 c 0,-1.333 -1.08,-2.415 -2.41,-2.415 z m -25.6,-76.23 c -3.98,-0.7227 -9.39,-1.3164 -15.04,-1.3164 -16.35,0 -25.61,11.5429 -25.61,29.2148 l 0,9.375 c 0,17.6758 9.14,29.2188 25.61,29.2188 5.52,0 11.06,-0.5938 15.04,-1.3164 1.91,-0.3633 2.4,-0.9649 2.4,-2.6485 l 0,-4.3242 c 0,-1.2109 -0.97,-1.8086 -2.05,-1.8086 -0.24,0 -0.35,0 -0.48,0 -5.29,0.5977 -9.02,0.8398 -14.91,0.8398 -9.62,0 -15.03,-6.375 -15.03,-19.9609 l 0,-9.375 c 0,-13.4648 5.29,-19.9609 15.03,-19.9609 5.89,0 9.62,0.2461 14.91,0.8398 0.13,0 0.24,0 0.48,0 1.08,0 2.05,-0.5937 2.05,-1.8047 l 0,-4.3281 c 0,-1.5586 -0.49,-2.2852 -2.4,-2.6445 z m -82.39,-1.3164 c -8.42,0 -14.67,0.8359 -19.96,1.6757 -2.03,0.3633 -2.28,0.8399 -2.28,2.168 l 0,4.8086 c 0,1.3242 0.97,1.9219 2.05,1.9219 0.11,0 0.23,0 0.36,0 5.54,-0.4805 14.3,-0.7227 19.83,-0.7227 14.44,0 18.28,5.7735 18.28,14.1914 0,6.0117 -3.48,9.3828 -14.43,16.1133 l -11.66,7.0977 c -11.05,6.7304 -16.59,12.8633 -16.59,22.4804 0,14.5511 10.46,21.2771 28.74,21.2771 7.09,0 16.35,-0.711 20.92,-1.433 1.21,-0.243 2.05,-0.852 2.05,-2.051 l 0,-5.164 c 0,-1.203 -0.84,-1.926 -2.05,-1.926 -0.12,0 -0.12,0 -0.24,0 -5.29,0.359 -13.71,0.723 -20.68,0.723 -12.38,0 -17.68,-2.649 -17.68,-11.4261 0,-5.6523 3.97,-9.0156 13.11,-14.5507 l 11.05,-6.6094 c 13.96,-8.293 18.89,-14.9141 18.89,-24.5313 0,-11.5429 -6.02,-24.0429 -29.71,-24.0429 z m -60.21,58.6679 c -5.54,0 -10.59,-1.4336 -16.6,-5.0468 l 0,-50.3789 c 0,-1.2032 -1.08,-2.4063 -2.41,-2.4063 l -5.89,0 c -1.2,0 -2.29,1.0859 -2.29,2.4063 l 0,61.3281 c 0,1.3164 0.98,2.3984 2.29,2.3984 l 5.66,0 c 1.32,0 2.28,-1.082 2.28,-2.3984 l 0,-2.5313 c 6.01,4.211 11.55,5.7696 16.96,5.7696 1.68,0 2.52,-0.7227 2.52,-2.168 l 0,-4.9219 c 0,-1.3281 -0.84,-2.0508 -2.52,-2.0508 z M 2740.9,62.4023 c 0,13.5821 -5.17,18.875 -15.76,18.875 -10.33,0 -16.11,-5.8867 -16.11,-18.875 l 0,-1.0859 31.87,0 0,1.0859 z m 8.42,-9.1406 -40.29,0 0,-1.6797 c 0,-14.3086 5.66,-19.6015 16.72,-19.6015 6.97,0 15.88,0.4804 21.4,1.3203 0.24,0 0.35,0 0.61,0 0.96,0 1.91,-0.4805 1.91,-1.6797 l 0,-4.0938 c 0,-1.5585 -0.48,-2.3984 -2.4,-2.7617 -6.85,-1.3203 -13.47,-2.039 -21.52,-2.039 -13.83,0 -27.3,6.4922 -27.3,28.8554 l 0,10.8203 c 0,17.1993 9.5,28.1329 26.69,28.1329 17.56,0 26.47,-11.0625 26.47,-28.1329 l 0,-6.4961 c 0,-1.5585 -0.85,-2.6445 -2.29,-2.6445 z m -61.2,-29.9414 c -2.41,-0.3594 -5.54,-0.5937 -7.82,-0.5937 -11.06,0 -16.35,2.8789 -16.35,16.1132 l 0,41.961 -11.66,1.3164 c -1.33,0.1289 -2.29,0.8437 -2.29,2.168 l 0,3.2421 c 0,1.3282 0.96,2.168 2.29,2.168 l 11.66,0 0,11.7887 c 0,1.204 0.84,2.161 2.17,2.403 l 6.25,0.957 c 0.12,0 0.23,0 0.36,0 0.97,0 1.81,-0.84 1.81,-2.039 l 0,-13.1097 12.98,0 c 1.31,0 2.41,-1.082 2.41,-2.3984 l 0,-4.0938 c 0,-1.3164 -1.1,-2.4023 -2.41,-2.4023 l -12.98,0 0,-41.961 c 0,-6.6132 1.68,-7.5781 6.48,-7.5781 l 6.74,0 c 1.68,0 2.52,-0.4805 2.52,-1.6836 l 0,-4.207 c 0,-1.0859 -0.6,-1.8086 -2.16,-2.0508 z m -51.59,0.2422 -6.02,0 c -1.32,0 -2.28,1.0859 -2.28,2.4063 l 0,2.2851 c -6.61,-3.7227 -12.02,-5.5273 -19.12,-5.5273 -14.43,0 -20.92,9.0117 -20.92,25.0078 l 0,39.5625 c 0,1.3164 1.08,2.3984 2.4,2.3984 l 5.78,0 c 1.32,0 2.4,-1.082 2.4,-2.3984 l 0,-39.5625 c 0,-12.1485 4.09,-15.8711 13.23,-15.8711 5.06,0 10.7,1.9258 16.23,4.6914 l 0,50.7422 c 0,1.1992 1.08,2.3984 2.4,2.3984 l 5.9,0 c 1.2,0 2.28,-1.082 2.28,-2.3984 l 0,-61.3281 c 0,-1.3204 -0.95,-2.4063 -2.28,-2.4063 z m -73.12,37.2773 c 0,12.629 -3.72,20.8008 -15.63,20.8008 -5.05,0 -10.7,-0.6054 -14.06,-1.2031 l 0,-47.6172 c 3.96,-0.7187 10.21,-1.1992 14.06,-1.1992 11.79,0 15.63,7.6953 15.63,20.5586 l 0,8.6601 z m -15.63,-38.1132 c -3.73,0 -9.38,0.4765 -14.06,1.3164 l 0,-21.75784 C 2533.72,1.08594 2532.76,0 2531.43,0 l -6.13,0 c -1.21,0 -2.17,0.957031 -2.17,2.28516 l 0,82.72654 c 0,1.5586 0.36,2.2852 2.53,2.7617 6.38,1.5625 14.79,2.7618 22.12,2.7618 17.92,0 26.21,-11.6563 26.21,-29.6954 l 0,-8.6601 c 0,-18.8789 -8.65,-29.4531 -26.21,-29.4531 z m -43.42,0.8359 -5.76,0 c -1.33,0 -2.41,1.0859 -2.41,2.4063 l 0,42.5664 c 0,10.0976 -4.69,12.8593 -10.95,12.8593 -4.32,0 -9.38,-1.4336 -14.06,-3.2422 0.72,-2.6445 1.08,-5.7695 1.08,-9.3828 l 0,-42.8007 c 0,-1.2032 -0.85,-2.4063 -2.16,-2.4063 l -6.38,0 c -1.2,0 -2.04,1.0859 -2.04,2.4063 l 0,42.8007 c 0,10.4688 -3,12.625 -9.25,12.625 -4.34,0 -9.63,-2.1562 -14.67,-4.6836 l 0,-50.7421 c 0,-1.2032 -0.85,-2.4063 -2.17,-2.4063 l -6.38,0 c -1.2,0 -2.04,1.0859 -2.04,2.4063 l 0,61.3281 c 0,1.3164 0.96,2.3984 2.29,2.3984 l 6.01,0 c 1.31,0 2.29,-1.082 2.29,-2.3984 l 0,-2.2852 c 4.8,2.9961 10.94,5.6406 17.55,5.6406 5.16,0 9.01,-1.4335 12.02,-4.9218 6.62,3.125 13.71,4.9218 19.96,4.9218 10.82,0 19.47,-5.4101 19.47,-22.1171 l 0,-42.5664 c 0,-1.3204 -1.07,-2.4063 -2.4,-2.4063 z m -101.97,37.6367 c 0,12.2696 -4.92,20.0781 -16.23,20.0781 -11.17,0 -16.12,-7.6914 -16.12,-20.0781 l 0,-9.1367 c 0,-12.2656 4.82,-20.082 16.12,-20.082 11.19,0 16.23,7.6992 16.23,20.082 l 0,9.1367 z m -16.23,-38.4726 c -17.68,0 -26.69,11.6601 -26.69,29.3359 l 0,9.1367 c 0,17.6797 9.01,29.336 26.69,29.336 17.67,0 26.81,-11.6563 26.81,-29.336 l 0,-9.1367 c 0,-17.6758 -9.14,-29.3359 -26.81,-29.3359 z m -37.91,1.5586 c -5.05,-0.9649 -9.74,-1.5586 -19.96,-1.5586 -14.79,0 -31.74,7.9257 -31.74,37.1445 l 0,16.7227 c 0,29.4532 16.95,37.1442 31.74,37.1442 7.57,0 14.91,-1.074 20.19,-1.922 1.1,-0.117 1.94,-0.476 1.94,-1.562 l 0,-6.133 c 0,-0.723 -0.25,-1.316 -1.45,-1.316 -0.12,0 -0.23,0 -0.36,0 -4.33,0.359 -13.23,1.082 -20.21,1.082 -11.77,0 -20.91,-6.8558 -20.91,-27.2932 l 0,-16.7227 c 0,-20.1914 9.14,-27.293 20.91,-27.293 6.86,0 15.52,0.6055 19.85,0.9688 0.11,0 0.36,0 0.49,0 1.31,0 1.91,-0.6094 1.91,-1.9258 l 0,-4.9336 c 0,-1.4453 -1.07,-2.1563 -2.4,-2.4023 z m -108.24,56.1523 c -3.97,0.7227 -10.22,0.8398 -14.07,0.8398 -11.77,0 -15.62,-7.332 -15.62,-20.2031 l 0,-8.6523 c 0,-13.1055 3.73,-20.4414 15.62,-20.4414 4.09,0 9.98,0.3633 14.07,0.7226 l 0,47.7344 z m 8.06,-55.6719 c -7.46,-1.4453 -14.78,-2.039 -22.13,-2.039 -17.91,0 -26.21,11.6601 -26.21,29.6953 l 0,8.6523 c 0,18.8867 8.65,29.461 26.21,29.461 3.73,0 9.38,-0.3594 14.07,-1.1993 l 0,22.3631 c 0,1.199 0.97,2.285 2.28,2.285 l 6.13,0 c 1.21,0 2.17,-0.957 2.17,-2.285 l 0,-84.1717 c 0,-1.5585 -0.35,-2.3984 -2.52,-2.7617 z m -64.94,-1.2031 -5.76,0 c -1.33,0 -2.4,1.0859 -2.4,2.4063 l 0,39.5585 c 0,12.1485 -4.11,15.8672 -13.24,15.8672 -5.05,0 -10.7,-1.9218 -16.24,-4.6836 l 0,-50.7421 c 0,-1.2032 -1.07,-2.4063 -2.4,-2.4063 l -5.89,0 c -1.2,0 -2.27,1.0859 -2.27,2.4063 l 0,61.3281 c 0,1.3164 0.95,2.3984 2.27,2.3984 l 6.02,0 c 1.32,0 2.27,-1.082 2.27,-2.3984 l 0,-2.2852 c 6.62,3.7188 12.03,5.5235 19.12,5.5235 14.44,0 20.93,-9.0118 20.93,-25.0079 l 0,-39.5585 c 0,-1.3204 -1.08,-2.4063 -2.41,-2.4063 z m -75.16,31.9844 -8.88,0 c -14.55,0 -18.4,-3.2422 -18.4,-11.7774 l 0,-1.4453 c 0,-8.664 4.08,-10.9453 11.05,-10.9453 5.53,0 10.47,1.6875 16.23,4.8125 l 0,19.3555 z m 8.19,-31.9844 -5.53,0 c -1.33,0 -2.41,1.0859 -2.41,2.4063 l 0,2.6445 c -5.77,-3.3711 -11.79,-5.8867 -18.52,-5.8867 -10.22,0 -19.6,4.4414 -19.6,19.4687 l 0,1.4492 c 0,12.9883 7.58,19.4805 28.99,19.4805 l 8.88,0 0,4.8047 c 0,10.1055 -3.47,13.5937 -12.86,13.5937 -7.82,0 -13.58,-0.4882 -18.4,-0.9648 -0.24,0 -0.36,0 -0.59,0 -1.09,0 -2.17,0.3594 -2.17,1.9219 l 0,4.207 c 0,1.3203 0.84,2.043 2.52,2.2891 4.94,0.8359 10.47,1.5586 18.64,1.5586 16.71,0 23.45,-8.418 23.45,-22.6055 l 0,-41.9609 c 0,-1.3204 -1.08,-2.4063 -2.4,-2.4063 z m -109.18,-0.8359 c -4.46,0 -13.11,0.3593 -19.01,1.8046 -1.56,0.3516 -2.52,1.0743 -2.52,2.4024 l 0,4.2109 c 0,1.0821 0.96,1.793 2.17,1.793 0.24,0 0.35,0 0.47,0 5.78,-0.7109 14.55,-1.3164 18.89,-1.3164 7.81,0 11.89,2.0391 11.89,8.5351 0,3.6133 -2.16,5.8907 -9.01,9.9805 l -12.14,7.2188 c -7.34,4.4414 -12.27,9.6172 -12.27,17.1953 0,12.5 9.38,15.9844 21.76,15.9844 6.74,0 13.11,-0.5938 18.76,-1.5586 1.56,-0.2461 2.29,-1.086 2.29,-2.4063 l 0,-3.9726 c 0,-1.4375 -0.85,-2.0391 -2.04,-2.0391 -0.12,0 -0.25,0 -0.38,0 -4.19,0.3594 -11.89,0.9648 -18.63,0.9648 -6.74,0 -11.18,-0.8476 -11.18,-6.9726 0,-3.6133 2.76,-5.8985 8.29,-9.1406 l 11.92,-7.0977 c 9.98,-5.8906 13.22,-11.0547 13.22,-18.1563 0,-12.2656 -9.03,-17.4296 -22.48,-17.4296 z m -35.24,1.3164 c -3.97,-0.7227 -9.38,-1.3164 -15.04,-1.3164 -16.34,0 -25.6,11.5429 -25.6,29.2148 l 0,9.375 c 0,17.6758 9.14,29.2188 25.6,29.2188 5.53,0 11.07,-0.5938 15.04,-1.3164 1.92,-0.3633 2.41,-0.9649 2.41,-2.6485 l 0,-4.3242 c 0,-1.2109 -0.97,-1.8086 -2.06,-1.8086 -0.23,0 -0.35,0 -0.47,0 -5.3,0.5977 -9.02,0.8398 -14.92,0.8398 -9.62,0 -15.03,-6.375 -15.03,-19.9609 l 0,-9.375 c 0,-13.4648 5.3,-19.9609 15.03,-19.9609 5.9,0 9.62,0.2461 14.92,0.8398 0.12,0 0.24,0 0.47,0 1.09,0 2.06,-0.5937 2.06,-1.8047 l 0,-4.3281 c 0,-1.5586 -0.49,-2.2852 -2.41,-2.6445 z m -58.69,-0.4805 -5.76,0 c -1.33,0 -2.41,1.0859 -2.41,2.4063 l 0,61.3281 c 0,1.3164 1.08,2.3984 2.41,2.3984 l 5.76,0 c 1.33,0 2.4,-1.082 2.4,-2.3984 l 0,-61.3281 c 0,-1.3204 -1.07,-2.4063 -2.4,-2.4063 z m 0.25,76.7105 -6.14,0 c -1.32,0 -2.4,1.082 -2.4,2.415 l 0,9.617 c 0,1.316 1.08,2.402 2.4,2.402 l 6.14,0 c 1.31,0 2.41,-1.086 2.41,-2.402 l 0,-9.617 c 0,-1.333 -1.1,-2.415 -2.41,-2.415 z m -23.1,-76.9527 c -2.4,-0.3594 -5.53,-0.5937 -7.81,-0.5937 -11.06,0 -16.35,2.8789 -16.35,16.1132 l 0,41.961 -11.66,1.3164 c -1.33,0.1289 -2.29,0.8437 -2.29,2.168 l 0,3.2421 c 0,1.3282 0.96,2.168 2.29,2.168 l 11.66,0 0,11.7887 c 0,1.204 0.84,2.161 2.16,2.403 l 6.26,0.957 c 0.12,0 0.23,0 0.35,0 0.97,0 1.81,-0.84 1.81,-2.039 l 0,-13.1097 12.98,0 c 1.32,0 2.41,-1.082 2.41,-2.3984 l 0,-4.0938 c 0,-1.3164 -1.09,-2.4023 -2.41,-2.4023 l -12.98,0 0,-41.961 c 0,-6.6132 1.69,-7.5781 6.49,-7.5781 l 6.74,0 c 1.68,0 2.52,-0.4805 2.52,-1.6836 l 0,-4.207 c 0,-1.0859 -0.61,-1.8086 -2.17,-2.0508 z m -59.88,32.2266 -8.9,0 c -14.55,0 -18.4,-3.2422 -18.4,-11.7774 l 0,-1.4453 c 0,-8.664 4.09,-10.9453 11.06,-10.9453 5.53,0 10.47,1.6875 16.24,4.8125 l 0,19.3555 z m 8.17,-31.9844 -5.53,0 c -1.32,0 -2.4,1.0859 -2.4,2.4063 l 0,2.6445 c -5.77,-3.3711 -11.79,-5.8867 -18.52,-5.8867 -10.22,0 -19.6,4.4414 -19.6,19.4687 l 0,1.4492 c 0,12.9883 7.57,19.4805 28.98,19.4805 l 8.9,0 0,4.8047 c 0,10.1055 -3.49,13.5937 -12.87,13.5937 -7.82,0 -13.59,-0.4882 -18.4,-0.9648 -0.24,0 -0.36,0 -0.6,0 -1.08,0 -2.16,0.3594 -2.16,1.9219 l 0,4.207 c 0,1.3203 0.84,2.043 2.52,2.2891 4.94,0.8359 10.47,1.5586 18.64,1.5586 16.72,0 23.45,-8.418 23.45,-22.6055 l 0,-41.9609 c 0,-1.3204 -1.09,-2.4063 -2.41,-2.4063 z m -62.41,0 -5.77,0 c -1.33,0 -2.41,1.0859 -2.41,2.4063 l 0,42.5664 c 0,10.0976 -4.69,12.8593 -10.94,12.8593 -4.33,0 -9.38,-1.4336 -14.07,-3.2422 0.72,-2.6445 1.08,-5.7695 1.08,-9.3828 l 0,-42.8007 c 0,-1.2032 -0.84,-2.4063 -2.16,-2.4063 l -6.37,0 c -1.21,0 -2.05,1.0859 -2.05,2.4063 l 0,42.8007 c 0,10.4688 -3,12.625 -9.25,12.625 -4.34,0 -9.62,-2.1562 -14.68,-4.6836 l 0,-50.7421 c 0,-1.2032 -0.84,-2.4063 -2.16,-2.4063 l -6.37,0 c -1.2,0 -2.04,1.0859 -2.04,2.4063 l 0,61.3281 c 0,1.3164 0.95,2.3984 2.28,2.3984 l 6.01,0 c 1.33,0 2.28,-1.082 2.28,-2.3984 l 0,-2.2852 c 4.82,2.9961 10.95,5.6406 17.56,5.6406 5.17,0 9.02,-1.4335 12.02,-4.9218 6.62,3.125 13.71,4.9218 19.96,4.9218 10.82,0 19.48,-5.4101 19.48,-22.1171 l 0,-42.5664 c 0,-1.3204 -1.08,-2.4063 -2.4,-2.4063 z m -102.33,38.8398 c 0,13.5821 -5.18,18.875 -15.76,18.875 -10.34,0 -16.11,-5.8867 -16.11,-18.875 l 0,-1.0859 31.87,0 0,1.0859 z m 8.41,-9.1406 -40.28,0 0,-1.6797 c 0,-14.3086 5.65,-19.6015 16.71,-19.6015 6.98,0 15.88,0.4804 21.41,1.3203 0.24,0 0.36,0 0.6,0 0.96,0 1.92,-0.4805 1.92,-1.6797 l 0,-4.0938 c 0,-1.5585 -0.48,-2.3984 -2.4,-2.7617 -6.86,-1.3203 -13.47,-2.039 -21.53,-2.039 -13.82,0 -27.29,6.4922 -27.29,28.8554 l 0,10.8203 c 0,17.1993 9.5,28.1329 26.69,28.1329 17.56,0 26.45,-11.0625 26.45,-28.1329 l 0,-6.4961 c 0,-1.5585 -0.84,-2.6445 -2.28,-2.6445 z m -67.46,-29.6992 -5.77,0 c -1.32,0 -2.4,1.0859 -2.4,2.4063 l 0,39.5585 c 0,12.0235 -5.06,15.75 -12.87,15.75 -3.73,0 -11.3,-0.9648 -16.59,-3.3671 l 0,-51.9414 c 0,-1.2032 -1.08,-2.4063 -2.41,-2.4063 l -5.89,0 c -1.2,0 -2.29,1.0859 -2.29,2.4063 l 0,85.6132 c 0,1.316 0.97,2.402 2.29,2.402 l 6.02,0 c 1.31,0 2.28,-1.086 2.28,-2.402 l 0,-24.7734 c 5.77,2.5273 13.22,3.7266 18.39,3.7266 12.75,0 21.65,-7.3321 21.65,-25.0079 l 0,-39.5585 c 0,-1.3204 -1.08,-2.4063 -2.41,-2.4063 z m -61.57,-0.2422 c -2.4,-0.3594 -5.53,-0.5937 -7.81,-0.5937 -11.06,0 -16.36,2.8789 -16.36,16.1132 l 0,41.961 -11.66,1.3164 c -1.32,0.1289 -2.28,0.8437 -2.28,2.168 l 0,3.2421 c 0,1.3282 0.96,2.168 2.28,2.168 l 11.66,0 0,11.7887 c 0,1.204 0.84,2.161 2.17,2.403 l 6.25,0.957 c 0.12,0 0.24,0 0.36,0 0.97,0 1.81,-0.84 1.81,-2.039 l 0,-13.1097 12.98,0 c 1.33,0 2.41,-1.082 2.41,-2.3984 l 0,-4.0938 c 0,-1.3164 -1.08,-2.4023 -2.41,-2.4023 l -12.98,0 0,-41.961 c 0,-6.6132 1.68,-7.5781 6.49,-7.5781 l 6.73,0 c 1.69,0 2.53,-0.4805 2.53,-1.6836 l 0,-4.207 c 0,-1.0859 -0.6,-1.8086 -2.17,-2.0508 z m -59.88,32.2266 -8.9,0 c -14.55,0 -18.4,-3.2422 -18.4,-11.7774 l 0,-1.4453 c 0,-8.664 4.09,-10.9453 11.06,-10.9453 5.53,0 10.47,1.6875 16.24,4.8125 l 0,19.3555 z m 8.17,-31.9844 -5.53,0 c -1.32,0 -2.4,1.0859 -2.4,2.4063 l 0,2.6445 c -5.78,-3.3711 -11.79,-5.8867 -18.52,-5.8867 -10.22,0 -19.6,4.4414 -19.6,19.4687 l 0,1.4492 c 0,12.9883 7.57,19.4805 28.98,19.4805 l 8.9,0 0,4.8047 c 0,10.1055 -3.49,13.5937 -12.87,13.5937 -7.82,0 -13.59,-0.4882 -18.4,-0.9648 -0.24,0 -0.36,0 -0.6,0 -1.08,0 -2.16,0.3594 -2.16,1.9219 l 0,4.207 c 0,1.3203 0.84,2.043 2.52,2.2891 4.93,0.8359 10.47,1.5586 18.64,1.5586 16.71,0 23.45,-8.418 23.45,-22.6055 l 0,-41.9609 c 0,-1.3204 -1.09,-2.4063 -2.41,-2.4063 z m -63.5,0 -5.89,0 c -1.32,0 -2.4,1.0859 -2.4,2.4063 l 0,71.3046 c 0,0.2383 0,0.3633 -0.12,0.3633 -0.12,0 -0.12,0 -0.24,-0.2422 l -17.19,-35.5976 c -1.21,-2.4024 -2.41,-3.4844 -5.42,-3.4844 l -5.53,0 c -3,0 -4.21,1.082 -5.41,3.4844 l -17.19,35.5976 c -0.12,0.2422 -0.12,0.2422 -0.24,0.2422 -0.13,0 -0.13,-0.125 -0.13,-0.3633 l 0,-71.3046 c 0,-1.3204 -1.08,-2.4063 -2.4,-2.4063 l -5.89,0 c -1.33,0 -2.4,1.0859 -2.4,2.4063 l 0,83.4452 c 0,1.926 1.56,3.484 3.48,3.484 l 7.82,0 c 2.16,0 3.12,-0.476 3.85,-2.039 l 19.84,-41.2418 c 0.47,-1.082 0.84,-1.3281 1.44,-1.3281 0.6,0 0.96,0.2461 1.44,1.3281 l 19.84,41.2418 c 0.72,1.563 1.69,2.039 3.85,2.039 l 7.81,0 c 1.92,0 3.49,-1.558 3.49,-3.484 l 0,-83.4452 c 0,-1.3204 -1.08,-2.4063 -2.41,-2.4063 z m -129.43,56.875 c -3.97,0.7227 -10.23,0.8398 -14.08,0.8398 -11.78,0 -15.63,-7.332 -15.63,-20.2031 l 0,-8.6523 c 0,-13.1055 3.73,-20.4414 15.63,-20.4414 4.1,0 9.98,0.3633 14.08,0.7226 l 0,47.7344 z m 8.05,-55.6719 c -7.45,-1.4453 -14.79,-2.039 -22.13,-2.039 -17.91,0 -26.21,11.6601 -26.21,29.6953 l 0,8.6523 c 0,18.8867 8.66,29.461 26.21,29.461 3.73,0 9.38,-0.3594 14.08,-1.1993 l 0,22.3631 c 0,1.199 0.96,2.285 2.28,2.285 l 6.13,0 c 1.21,0 2.17,-0.957 2.17,-2.285 l 0,-84.1717 c 0,-1.5585 -0.36,-2.3984 -2.53,-2.7617 z m -71.31,37.6367 c 0,13.5821 -5.17,18.875 -15.75,18.875 -10.34,0 -16.11,-5.8867 -16.11,-18.875 l 0,-1.0859 31.86,0 0,1.0859 z m 8.42,-9.1406 -40.28,0 0,-1.6797 c 0,-14.3086 5.65,-19.6015 16.71,-19.6015 6.98,0 15.88,0.4804 21.4,1.3203 0.25,0 0.37,0 0.61,0 0.96,0 1.92,-0.4805 1.92,-1.6797 l 0,-4.0938 c 0,-1.5585 -0.48,-2.3984 -2.4,-2.7617 -6.86,-1.3203 -13.47,-2.039 -21.53,-2.039 -13.83,0 -27.29,6.4922 -27.29,28.8554 l 0,10.8203 c 0,17.1993 9.5,28.1329 26.69,28.1329 17.56,0 26.46,-11.0625 26.46,-28.1329 l 0,-6.4961 c 0,-1.5585 -0.85,-2.6445 -2.29,-2.6445 z m -68.9,-29.6992 -5.77,0 c -1.32,0 -2.41,1.0859 -2.41,2.4063 l 0,61.3281 c 0,1.3164 1.09,2.3984 2.41,2.3984 l 5.77,0 c 1.32,0 2.4,-1.082 2.4,-2.3984 l 0,-61.3281 c 0,-1.3204 -1.08,-2.4063 -2.4,-2.4063 z m 0.24,76.7105 -6.13,0 c -1.33,0 -2.4,1.082 -2.4,2.415 l 0,9.617 c 0,1.316 1.07,2.402 2.4,2.402 l 6.13,0 c 1.32,0 2.41,-1.086 2.41,-2.402 l 0,-9.617 c 0,-1.333 -1.09,-2.415 -2.41,-2.415 z m -29.46,-76.7105 -6.25,0 c -1.2,0 -2.17,1.0859 -2.17,2.4063 l 0,85.7302 c 0,1.199 0.84,2.285 2.17,2.285 l 6.25,0 c 1.2,0 2.17,-0.957 2.17,-2.285 l 0,-85.7302 c 0,-1.2032 -0.85,-2.4063 -2.17,-2.4063 z m -34.4,37.2773 c 0,12.629 -3.73,20.8008 -15.63,20.8008 -5.05,0 -10.7,-0.6054 -14.06,-1.2031 l 0,-47.6172 c 3.96,-0.7187 10.22,-1.1992 14.06,-1.1992 11.79,0 15.63,7.6953 15.63,20.5586 l 0,8.6601 z M 1105.5,22.7266 c -3.73,0 -9.38,0.4765 -14.06,1.3164 l 0,-21.75784 C 1091.44,1.08594 1090.47,0 1089.15,0 l -6.13,0 c -1.2,0 -2.17,0.957031 -2.17,2.28516 l 0,82.72654 c 0,1.5586 0.36,2.2852 2.53,2.7617 6.37,1.5625 14.78,2.7618 22.12,2.7618 17.92,0 26.21,-11.6563 26.21,-29.6954 l 0,-8.6601 c 0,-18.8789 -8.65,-29.4531 -26.21,-29.4531 z m -49.43,38.1132 c 0,12.629 -3.73,20.8008 -15.63,20.8008 -5.05,0 -10.7,-0.6054 -14.06,-1.2031 l 0,-47.6172 c 3.96,-0.7187 10.22,-1.1992 14.06,-1.1992 11.79,0 15.63,7.6953 15.63,20.5586 l 0,8.6601 z m -15.63,-38.1132 c -3.73,0 -9.38,0.4765 -14.06,1.3164 l 0,-21.75784 C 1026.38,1.08594 1025.41,0 1024.09,0 l -6.13,0 c -1.2,0 -2.17,0.957031 -2.17,2.28516 l 0,82.72654 c 0,1.5586 0.36,2.2852 2.53,2.7617 6.37,1.5625 14.79,2.7618 22.12,2.7618 17.92,0 26.22,-11.6563 26.22,-29.6954 l 0,-8.6601 c 0,-18.8789 -8.66,-29.4531 -26.22,-29.4531 z m -68.542,79.3514 c -0.359,1.32 -1.082,2.168 -2.285,2.168 -1.32,0 -2.047,-0.848 -2.402,-2.168 l -10.941,-39.5585 26.574,0 -10.946,39.5585 z m 30.182,-78.5155 -7.096,0 c -1.082,0 -1.8,0.8398 -2.046,1.8086 l -7.809,27.6562 -31.145,0 -7.695,-27.6562 c -0.238,-0.9688 -1.199,-1.8086 -2.164,-1.8086 l -7.094,0 c -1.203,0 -2.047,0.8398 -2.047,1.9258 0,0.2422 0,0.6055 0.121,0.8398 l 22.243,78.2809 c 2.047,7.332 7.695,9.129 12.265,9.129 4.449,0 10.106,-1.676 12.145,-9.011 L 1004,26.3281 c 0.12,-0.2343 0.12,-0.5976 0.12,-0.8398 0,-1.086 -0.72,-1.9258 -2.04,-1.9258 z m -103.482,83.0855 -5.77,0 c -5.648,0 -7.336,-1.675 -7.336,-8.2964 l 0,-8.6563 12.629,0 c 1.32,0 2.285,-0.9648 2.285,-2.168 l 0,-4.6835 c 0,-1.2032 -0.965,-2.043 -2.285,-2.043 l -12.629,0 0,-54.832 c 0,-1.2032 -1.078,-2.4063 -2.285,-2.4063 l -5.887,0 c -1.324,0 -2.41,1.2031 -2.41,2.4063 l 0,54.832 -11.656,1.3164 c -1.324,0.1289 -2.285,0.9687 -2.285,2.168 l 0,3.2421 c 0,1.2032 0.961,2.168 2.285,2.168 l 11.656,0 0,8.6563 c 0,12.8714 6.258,16.7144 16.836,16.7144 3.242,0 5.168,-0.359 6.734,-0.718 1.325,-0.364 2.282,-0.84 2.282,-1.926 l 0,-3.965 c 0,-1.328 -0.84,-1.809 -2.164,-1.809 z M 841.355,61.1992 c 0,12.2696 -4.925,20.0781 -16.226,20.0781 -11.184,0 -16.113,-7.6914 -16.113,-20.0781 l 0,-9.1367 c 0,-12.2656 4.808,-20.082 16.113,-20.082 11.18,0 16.226,7.6992 16.226,20.082 l 0,9.1367 z M 825.129,22.7266 c -17.68,0 -26.695,11.6601 -26.695,29.3359 l 0,9.1367 c 0,17.6797 9.015,29.336 26.695,29.336 17.676,0 26.809,-11.6563 26.809,-29.336 l 0,-9.1367 c 0,-17.6758 -9.133,-29.3359 -26.809,-29.3359 z m -67.02,0.5937 c -2.406,-0.3594 -5.531,-0.5937 -7.816,-0.5937 -11.059,0 -16.352,2.8789 -16.352,16.1132 l 0,41.961 -11.668,1.3164 c -1.316,0.1289 -2.277,0.8437 -2.277,2.168 l 0,3.2421 c 0,1.3282 0.961,2.168 2.277,2.168 l 11.668,0 0,11.7887 c 0,1.204 0.844,2.161 2.164,2.403 l 6.254,0.957 c 0.121,0 0.239,0 0.36,0 0.965,0 1.801,-0.84 1.801,-2.039 l 0,-13.1097 12.992,0 c 1.316,0 2.398,-1.082 2.398,-2.3984 l 0,-4.0938 c 0,-1.3164 -1.082,-2.4023 -2.398,-2.4023 l -12.992,0 0,-41.961 c 0,-6.6132 1.687,-7.5781 6.496,-7.5781 l 6.734,0 c 1.684,0 2.523,-0.4805 2.523,-1.6836 l 0,-4.207 c 0,-1.0859 -0.601,-1.8086 -2.164,-2.0508 z m -51.714,0.2422 -5.77,0 c -1.324,0 -2.402,1.0859 -2.402,2.4063 l 0,39.5585 c 0,12.1485 -4.09,15.8672 -13.227,15.8672 -5.051,0 -10.703,-1.9218 -16.234,-4.6836 l 0,-50.7421 c 0,-1.2032 -1.082,-2.4063 -2.407,-2.4063 l -5.89,0 c -1.203,0 -2.281,1.0859 -2.281,2.4063 l 0,61.3281 c 0,1.3164 0.957,2.3984 2.281,2.3984 l 6.015,0 c 1.325,0 2.282,-1.082 2.282,-2.3984 l 0,-2.2852 c 6.613,3.7188 12.023,5.5235 19.121,5.5235 14.426,0 20.922,-9.0118 20.922,-25.0079 l 0,-39.5585 c 0,-1.3204 -1.086,-2.4063 -2.41,-2.4063 z m -73.348,38.8398 c 0,13.5821 -5.172,18.875 -15.75,18.875 -10.344,0 -16.113,-5.8867 -16.113,-18.875 l 0,-1.0859 31.863,0 0,1.0859 z m 8.418,-9.1406 -40.281,0 0,-1.6797 c 0,-14.3086 5.652,-19.6015 16.711,-19.6015 6.972,0 15.875,0.4804 21.402,1.3203 0.246,0 0.359,0 0.605,0 0.957,0 1.922,-0.4805 1.922,-1.6797 l 0,-4.0938 c 0,-1.5585 -0.48,-2.3984 -2.406,-2.7617 -6.856,-1.3203 -13.465,-2.039 -21.523,-2.039 -13.829,0 -27.293,6.4922 -27.293,28.8554 l 0,10.8203 c 0,17.1993 9.5,28.1329 26.695,28.1329 17.551,0 26.453,-11.0625 26.453,-28.1329 l 0,-6.4961 c 0,-1.5585 -0.844,-2.6445 -2.285,-2.6445 z m -67.473,-29.6992 -5.769,0 c -1.325,0 -2.407,1.0859 -2.407,2.4063 l 0,42.5664 c 0,10.0976 -4.687,12.8593 -10.945,12.8593 -4.324,0 -9.375,-1.4336 -14.066,-3.2422 0.722,-2.6445 1.086,-5.7695 1.086,-9.3828 l 0,-42.8007 c 0,-1.2032 -0.844,-2.4063 -2.164,-2.4063 l -6.375,0 c -1.204,0 -2.043,1.0859 -2.043,2.4063 l 0,42.8007 c 0,10.4688 -3.008,12.625 -9.258,12.625 -4.332,0 -9.617,-2.1562 -14.668,-4.6836 l 0,-50.7421 c 0,-1.2032 -0.844,-2.4063 -2.168,-2.4063 l -6.371,0 c -1.203,0 -2.047,1.0859 -2.047,2.4063 l 0,61.3281 c 0,1.3164 0.969,2.3984 2.285,2.3984 l 6.016,0 c 1.32,0 2.285,-1.082 2.285,-2.3984 l 0,-2.2852 c 4.805,2.9961 10.937,5.6406 17.555,5.6406 5.167,0 9.015,-1.4335 12.019,-4.9218 6.617,3.125 13.707,4.9218 19.961,4.9218 10.82,0 19.477,-5.4101 19.477,-22.1171 l 0,-42.5664 c 0,-1.3204 -1.079,-2.4063 -2.403,-2.4063 z m -90.539,-0.2422 c -2.406,-0.3594 -5.531,-0.5937 -7.816,-0.5937 -11.063,0 -16.356,2.8789 -16.356,16.1132 l 0,41.961 -11.664,1.3164 c -1.316,0.1289 -2.281,0.8437 -2.281,2.168 l 0,3.2421 c 0,1.3282 0.965,2.168 2.281,2.168 l 11.664,0 0,11.7887 c 0,1.204 0.848,2.161 2.164,2.403 l 6.254,0.957 c 0.121,0 0.239,0 0.363,0 0.961,0 1.801,-0.84 1.801,-2.039 l 0,-13.1097 12.989,0 c 1.32,0 2.402,-1.082 2.402,-2.3984 l 0,-4.0938 c 0,-1.3164 -1.082,-2.4023 -2.402,-2.4023 l -12.989,0 0,-41.961 c 0,-6.6132 1.684,-7.5781 6.492,-7.5781 l 6.735,0 c 1.683,0 2.523,-0.4805 2.523,-1.6836 l 0,-4.207 c 0,-1.0859 -0.597,-1.8086 -2.16,-2.0508 z m -46.898,58.0742 c -5.535,0 -10.582,-1.4336 -16.594,-5.0468 l 0,-50.3789 c 0,-1.2032 -1.082,-2.4063 -2.406,-2.4063 l -5.895,0 c -1.199,0 -2.285,1.0859 -2.285,2.4063 l 0,61.3281 c 0,1.3164 0.969,2.3984 2.285,2.3984 l 5.652,0 c 1.325,0 2.29,-1.082 2.29,-2.3984 l 0,-2.5313 c 6.007,4.211 11.543,5.7696 16.953,5.7696 1.675,0 2.523,-0.7227 2.523,-2.168 l 0,-4.9219 c 0,-1.3281 -0.848,-2.0508 -2.523,-2.0508 z m -54.117,-25.8476 -8.899,0 c -14.551,0 -18.398,-3.2422 -18.398,-11.7774 l 0,-1.4453 c 0,-8.664 4.089,-10.9453 11.058,-10.9453 5.535,0 10.465,1.6875 16.239,4.8125 l 0,19.3555 z m 8.171,-31.9844 -5.527,0 c -1.32,0 -2.406,1.0859 -2.406,2.4063 l 0,2.6445 c -5.774,-3.3711 -11.781,-5.8867 -18.516,-5.8867 -10.219,0 -19.598,4.4414 -19.598,19.4687 l 0,1.4492 c 0,12.9883 7.571,19.4805 28.977,19.4805 l 8.899,0 0,4.8047 c 0,10.1055 -3.489,13.5937 -12.868,13.5937 -7.816,0 -13.59,-0.4882 -18.398,-0.9648 -0.238,0 -0.36,0 -0.602,0 -1.078,0 -2.164,0.3594 -2.164,1.9219 l 0,4.207 c 0,1.3203 0.84,2.043 2.528,2.2891 4.929,0.8359 10.461,1.5586 18.636,1.5586 16.715,0 23.45,-8.418 23.45,-22.6055 l 0,-41.9609 c 0,-1.3204 -1.086,-2.4063 -2.411,-2.4063 z m -68.421,37.2773 c 0,12.629 -3.731,20.8008 -15.629,20.8008 -5.055,0 -10.704,-0.6054 -14.071,-1.2031 l 0,-47.6172 c 3.965,-0.7187 10.223,-1.1992 14.071,-1.1992 11.781,0 15.629,7.6953 15.629,20.5586 l 0,8.6601 z M 306.559,22.7266 c -3.731,0 -9.379,0.4765 -14.071,1.3164 l 0,-21.75784 C 292.488,1.08594 291.523,0 290.203,0 l -6.133,0 c -1.199,0 -2.168,0.957031 -2.168,2.28516 l 0,82.72654 c 0,1.5586 0.364,2.2852 2.532,2.7617 6.371,1.5625 14.785,2.7618 22.125,2.7618 17.914,0 26.211,-11.6563 26.211,-29.6954 l 0,-8.6601 c 0,-18.8789 -8.661,-29.4531 -26.211,-29.4531 z m -49.786,39.6757 c 0,13.5821 -5.171,18.875 -15.753,18.875 -10.34,0 -16.114,-5.8867 -16.114,-18.875 l 0,-1.0859 31.867,0 0,1.0859 z m 8.418,-9.1406 -40.285,0 0,-1.6797 c 0,-14.3086 5.656,-19.6015 16.715,-19.6015 6.973,0 15.875,0.4804 21.402,1.3203 0.243,0 0.36,0 0.598,0 0.969,0 1.926,-0.4805 1.926,-1.6797 l 0,-4.0938 c 0,-1.5585 -0.481,-2.3984 -2.402,-2.7617 -6.856,-1.3203 -13.465,-2.039 -21.524,-2.039 -13.828,0 -27.297,6.4922 -27.297,28.8554 l 0,10.8203 c 0,17.1993 9.504,28.1329 26.696,28.1329 17.554,0 26.453,-11.0625 26.453,-28.1329 l 0,-6.4961 c 0,-1.5585 -0.84,-2.6445 -2.282,-2.6445 z m -74.683,23.086 c 0,21.7656 -11.059,28.0153 -25.488,28.0153 -5.657,0 -9.379,-0.117 -13.348,-0.359 l 0,-71.6602 c 3.848,-0.2422 7.691,-0.2422 13.348,-0.2422 14.429,0 25.488,6.375 25.488,28.0156 l 0,16.2305 z M 165.02,22.7266 c -9.141,0 -18.399,0.5937 -21.883,1.1992 -1.567,0.2461 -2.528,1.2031 -2.528,3.0078 l 0,82.5974 c 0,1.692 0.961,2.774 2.528,3.008 3.484,0.606 12.742,1.199 21.883,1.199 22.242,0 36.429,-11.414 36.429,-37.3903 l 0,-16.2305 c 0,-25.7305 -14.187,-37.3906 -36.429,-37.3906"
             style="fill:#848182;fill-opacity:1;fill-rule:nonzero;stroke:none"
             id="path8092"
             inkscape:connector-curvature="0" /></g></g></g><text
       xml:space="preserve"
       style="font-style:normal;font-weight:normal;font-size:12px;line-height:125%;font-family:sans-serif;letter-spacing:0px;word-spacing:0px;fill:#000000;fill-opacity:1;stroke:none;stroke-width:1px;stroke-linecap:butt;stroke-linejoin:miter;stroke-opacity:1"
       x="13.308842"
       y="-2.2181416"
       id="text8094"
       sodipodi:linespacing="125%"
       transform="scale(1,-1)"><tspan
         sodipodi:role="line"
         id="tspan8096"
         x="13.308842"
         y="-2.2181416"
         style="font-style:normal;font-variant:normal;font-weight:normal;font-stretch:normal;font-family:'Neo Sans Std';-inkscape-font-specification:'Neo Sans Std'">Department of Applied Mathematics and Computer Science</tspan></text>
<text
       xml:space="preserve"
       style="font-style:normal;font-weight:normal;font-size:12px;line-height:125%;font-family:sans-serif;letter-spacing:0px;word-spacing:0px;fill:#000000;fill-opacity:1;stroke:none;stroke-width:1px;stroke-linecap:butt;stroke-linejoin:miter;stroke-opacity:1"
       x="12.939152"
       y="-27.466364"
       id="text8098"
       sodipodi:linespacing="125%"
       transform="scale(1,-1)"><tspan
         sodipodi:role="line"
         id="tspan8100"
         x="12.939152"
         y="-27.466364"
         style="font-style:normal;font-variant:normal;font-weight:normal;font-stretch:normal;font-family:'Neo Sans Std';-inkscape-font-specification:'Neo Sans Std'">DTU Compute</tspan></text>
</g></svg>